<svg width="151" height="32" viewBox="0 0 151 32" fill="none" xmlns="http://www.w3.org/2000/svg">
<path d="M13.0988 17.754C12.5333 17.754 11.9049 17.644 11.2137 17.424C10.5381 17.204 9.83907 16.9327 9.11643 16.61C8.39379 16.302 7.679 16.0013 6.97207 15.708C6.57933 16.1187 6.17089 16.434 5.74673 16.654C5.32257 16.8887 4.85914 17.006 4.35643 17.006C3.85373 17.006 3.42957 16.896 3.08396 16.676C2.72264 16.456 2.45558 16.192 2.28277 15.884C2.09426 15.5907 2 15.3267 2 15.092C2 14.828 2.13353 14.6007 2.40059 14.41C2.65195 14.2193 3.09181 14.124 3.7202 14.124C4.12864 14.124 4.57637 14.168 5.06336 14.256C5.56607 14.344 6.08448 14.454 6.61861 14.586C6.99564 13.97 7.34125 13.2513 7.65544 12.43C7.98534 11.6087 8.30739 10.736 8.62158 9.812C8.93577 8.888 9.24996 7.964 9.56415 7.04C8.84151 6.82 8.26811 6.49733 7.84395 6.072C7.43551 5.64667 7.23128 5.18467 7.23128 4.686C7.23128 4.422 7.28626 4.158 7.39623 3.894C7.52191 3.63 7.69471 3.41 7.91465 3.234C8.13458 3.04333 8.39379 2.948 8.69227 2.948C8.5823 3.09467 8.50375 3.30733 8.45663 3.586C8.4095 3.86467 8.38593 4.10667 8.38593 4.312C8.38593 4.86933 8.51161 5.33867 8.76296 5.72C9.01432 6.08667 9.33636 6.37267 9.7291 6.578C10.0433 5.698 10.3653 4.86933 10.6952 4.092C11.0408 3.3 11.4179 2.596 11.8263 1.98C12.2348 1.364 12.6825 0.88 13.1695 0.528C13.6565 0.176 14.1985 0 14.7954 0C15.1096 0 15.4395 0.066 15.7851 0.198C16.1465 0.33 16.4528 0.557334 16.7041 0.88C16.9555 1.20267 17.0812 1.65733 17.0812 2.244C17.0812 2.74267 16.9712 3.28533 16.7513 3.872C16.5313 4.444 16.1936 4.994 15.738 5.522C15.2824 6.03533 14.7012 6.46067 13.9942 6.798C13.2873 7.12067 12.4547 7.28933 11.4964 7.304C11.4807 7.304 11.4414 7.304 11.3786 7.304C11.3315 7.304 11.2215 7.304 11.0487 7.304C10.7345 8.19867 10.3968 9.108 10.0354 10.032C9.68983 10.956 9.32065 11.836 8.92791 12.672C8.53517 13.4933 8.11102 14.2267 7.65544 14.872C8.37808 15.0773 9.10857 15.29 9.84692 15.51C10.5853 15.7153 11.3001 15.884 11.9913 16.016C12.6825 16.1627 13.3187 16.236 13.9 16.236C14.2299 16.236 14.5284 16.2067 14.7954 16.148C15.0625 16.0893 15.3217 16.0013 15.5731 15.884C15.3217 16.5587 14.9839 17.0353 14.5598 17.314C14.1513 17.6073 13.6643 17.754 13.0988 17.754ZM4.26218 16.368C4.60779 16.368 4.92983 16.28 5.22831 16.104C5.5425 15.928 5.82528 15.6787 6.07663 15.356C5.58963 15.1653 5.11049 15.0113 4.6392 14.894C4.18363 14.762 3.76732 14.696 3.3903 14.696C3.09181 14.696 2.88759 14.7327 2.77762 14.806C2.66766 14.8793 2.61267 14.982 2.61267 15.114C2.61267 15.3633 2.76977 15.6347 3.08396 15.928C3.38244 16.2213 3.77518 16.368 4.26218 16.368ZM11.1901 6.886C11.897 6.886 12.5333 6.70267 13.0988 6.336C13.6801 5.95467 14.167 5.48533 14.5598 4.928C14.9682 4.356 15.2746 3.77667 15.4788 3.19C15.6987 2.60333 15.8087 2.09 15.8087 1.65C15.8087 1.22467 15.7223 0.938667 15.5495 0.792C15.3767 0.630666 15.1803 0.549999 14.9604 0.549999C14.4734 0.549999 14.0178 0.843333 13.5937 1.43C13.1695 2.01667 12.761 2.794 12.3683 3.762C11.9913 4.71533 11.5985 5.75667 11.1901 6.886Z" fill="#F5F5F5"/>
<path d="M18.5129 16.5C17.9788 16.5 17.5468 16.28 17.2168 15.84C16.9027 15.3853 16.7456 14.8647 16.7456 14.278C16.7456 13.8527 16.8163 13.3613 16.9576 12.804C17.1147 12.2467 17.3033 11.6967 17.5232 11.154C17.7431 10.6113 17.9709 10.164 18.2066 9.812C18.4422 9.46 18.6464 9.284 18.8192 9.284C18.8978 9.284 19.0313 9.328 19.2198 9.416C19.4083 9.48933 19.5654 9.592 19.6911 9.724C19.5183 9.97333 19.3062 10.3547 19.0549 10.868C18.8035 11.3813 18.5836 11.9313 18.3951 12.518C18.2066 13.1047 18.1123 13.6473 18.1123 14.146C18.1123 14.2633 18.128 14.4467 18.1594 14.696C18.1908 14.9307 18.2694 15.1433 18.3951 15.334C18.5207 15.5247 18.7093 15.62 18.9606 15.62C19.2591 15.62 19.5654 15.4807 19.8796 15.202C20.1938 14.9087 20.508 14.5347 20.8222 14.08C21.1521 13.6253 21.4663 13.134 21.7648 12.606C22.0632 12.078 22.3382 11.572 22.5895 11.088C22.8566 10.604 23.0765 10.2007 23.2493 9.878C23.3436 9.89267 23.4771 9.922 23.6499 9.966C23.8384 10.01 24.0034 10.0687 24.1448 10.142C24.3019 10.2153 24.3804 10.318 24.3804 10.45C24.3804 10.5087 24.3019 10.7067 24.1448 11.044C23.9877 11.3667 23.7992 11.77 23.5792 12.254C23.375 12.7233 23.1943 13.2 23.0372 13.684C22.8801 14.168 22.8016 14.5933 22.8016 14.96C22.8016 15.224 22.8566 15.4367 22.9665 15.598C23.0922 15.7593 23.2964 15.84 23.5792 15.84C23.9091 15.84 24.3097 15.7007 24.781 15.422C25.2523 15.1433 25.7314 14.74 26.2184 14.212C26.7054 13.6693 27.1374 13.024 27.5145 12.276L27.8208 12.474C27.4909 13.266 27.0589 13.97 26.5248 14.586C25.9906 15.1873 25.4251 15.6567 24.8281 15.994C24.2312 16.3313 23.6499 16.5 23.0844 16.5C22.6759 16.5 22.346 16.4267 22.0947 16.28C21.859 16.1333 21.6862 15.9353 21.5763 15.686C21.482 15.4367 21.4349 15.1653 21.4349 14.872C21.4349 14.696 21.4506 14.52 21.482 14.344C21.5134 14.1533 21.5527 13.9627 21.5998 13.772C21.317 14.256 21.0107 14.7107 20.6808 15.136C20.3509 15.5467 20.0053 15.8767 19.644 16.126C19.2827 16.3753 18.9056 16.5 18.5129 16.5Z" fill="#F5F5F5"/>
<path d="M28.4683 16.5C28.2012 16.5 27.9263 16.434 27.6435 16.302C27.3764 16.1847 27.1565 15.9867 26.9837 15.708C26.7952 15.4293 26.7009 15.0773 26.7009 14.652C26.7009 14.168 26.8266 13.6253 27.078 13.024C27.3293 12.4227 27.6671 11.8287 28.0912 11.242C28.5154 10.6407 29.0024 10.0907 29.5522 9.592C30.1021 9.07867 30.6755 8.67533 31.2724 8.382C31.8694 8.074 32.4585 7.92 33.0397 7.92C33.3696 7.92 33.621 7.97867 33.7938 8.096C33.9823 8.19867 34.0766 8.36733 34.0766 8.602C34.0766 8.66067 34.0687 8.712 34.053 8.756C34.053 8.8 34.0452 8.85133 34.0294 8.91C33.9509 8.79267 33.8331 8.712 33.676 8.668C33.5346 8.60933 33.3539 8.58 33.134 8.58C32.6313 8.58 32.1364 8.72667 31.6494 9.02C31.1782 9.29867 30.7383 9.67267 30.3298 10.142C29.9371 10.5967 29.5915 11.088 29.293 11.616C28.9945 12.144 28.7589 12.6573 28.5861 13.156C28.429 13.64 28.3504 14.0507 28.3504 14.388C28.3504 14.7107 28.429 14.9673 28.5861 15.158C28.7432 15.3487 28.9474 15.444 29.1988 15.444C29.6229 15.444 30.1335 15.1947 30.7304 14.696C31.3431 14.1973 31.9636 13.4933 32.592 12.584C33.2204 11.6747 33.7859 10.6113 34.2887 9.394C34.6343 8.54333 34.9877 7.678 35.349 6.798C35.7261 5.918 36.1031 5.07467 36.4801 4.268C36.8572 3.44667 37.2185 2.72067 37.5641 2.09C37.9254 1.44467 38.2632 0.938667 38.5774 0.572001C38.9073 0.190667 39.1979 0 39.4492 0C39.5749 0 39.6849 0.0513331 39.7791 0.153999C39.8734 0.242 39.9205 0.359334 39.9205 0.506C39.9205 0.740666 39.787 1.144 39.5199 1.716C39.2686 2.27333 38.9308 2.948 38.5067 3.74C38.0982 4.51733 37.6662 5.368 37.2106 6.292C36.7551 7.216 36.3152 8.15467 35.891 9.108C35.4826 10.0613 35.1448 10.9853 34.8778 11.88C34.6264 12.76 34.5007 13.5667 34.5007 14.3C34.5007 14.7107 34.5243 15.0187 34.5714 15.224C34.6186 15.4293 34.7756 15.532 35.0427 15.532C35.3726 15.532 35.7575 15.4 36.1974 15.136C36.6372 14.872 37.0771 14.498 37.517 14.014C37.9568 13.53 38.3417 12.9507 38.6716 12.276L38.9544 12.474C38.6559 13.222 38.2475 13.8967 37.729 14.498C37.2106 15.0847 36.6529 15.5467 36.056 15.884C35.4747 16.236 34.917 16.412 34.3829 16.412C33.8017 16.412 33.3932 16.2287 33.1576 15.862C32.9376 15.51 32.8277 15.1433 32.8277 14.762C32.8277 14.5127 32.8669 14.1827 32.9455 13.772C33.024 13.3613 33.134 12.9067 33.2754 12.408C32.7727 13.1853 32.2386 13.8893 31.673 14.52C31.1075 15.136 30.5498 15.62 29.9999 15.972C29.4658 16.324 28.9553 16.5 28.4683 16.5Z" fill="#F5F5F5"/>
<path d="M50.0922 16.522C49.5424 16.522 49.1418 16.3607 48.8904 16.038C48.6391 15.73 48.5134 15.356 48.5134 14.916C48.5134 14.5493 48.5684 14.1827 48.6784 13.816C48.804 13.4493 48.9219 13.09 49.0318 12.738C49.1575 12.386 49.2203 12.0707 49.2203 11.792C49.2203 11.4987 49.1496 11.2933 49.0083 11.176C48.8669 11.0587 48.7098 11 48.537 11C48.1442 11 47.7122 11.286 47.2409 11.858C46.7854 12.43 46.1884 13.2367 45.45 14.278C45.1987 14.63 44.9866 14.9893 44.8138 15.356C44.641 15.708 44.4761 16.0307 44.319 16.324C44.1933 16.324 44.0362 16.3093 43.8477 16.28C43.6592 16.2507 43.4864 16.1993 43.3293 16.126C43.1879 16.0673 43.1172 15.9867 43.1172 15.884C43.1172 15.7813 43.1879 15.5393 43.3293 15.158C43.4864 14.762 43.6592 14.3073 43.8477 13.794C44.0519 13.266 44.2247 12.738 44.3661 12.21C44.5232 11.6673 44.6017 11.2053 44.6017 10.824C44.6017 10.5747 44.5546 10.3767 44.4603 10.23C44.3818 10.0687 44.2326 9.988 44.0126 9.988C43.667 9.988 43.2507 10.186 42.7637 10.582C42.2767 10.9633 41.774 11.4693 41.2556 12.1C40.7372 12.7307 40.2423 13.4273 39.771 14.19C39.3155 14.938 38.9463 15.686 38.6635 16.434C38.5221 16.434 38.3493 16.412 38.1451 16.368C37.9409 16.324 37.7681 16.2653 37.6267 16.192C37.4696 16.1187 37.391 16.0453 37.391 15.972C37.391 15.884 37.4774 15.6273 37.6503 15.202C37.8073 14.762 37.9959 14.2413 38.2158 13.64C38.42 13.024 38.6007 12.4007 38.7578 11.77C38.9306 11.1393 39.017 10.582 39.017 10.098C39.1112 9.99533 39.2605 9.89267 39.4647 9.79C39.6689 9.68733 39.881 9.636 40.1009 9.636C40.3209 9.636 40.478 9.68733 40.5722 9.79C40.6822 9.89267 40.7372 10.032 40.7372 10.208C40.7372 10.3987 40.6743 10.7287 40.5487 11.198C40.4387 11.6527 40.2973 12.1587 40.1245 12.716C40.4387 12.2467 40.7922 11.77 41.1849 11.286C41.5934 10.7873 42.0175 10.3327 42.4574 9.922C42.8972 9.51133 43.3371 9.18133 43.777 8.932C44.2326 8.668 44.6724 8.536 45.0966 8.536C45.5836 8.536 45.9135 8.70467 46.0863 9.042C46.2748 9.36467 46.3691 9.75333 46.3691 10.208C46.3691 10.5747 46.3219 10.9633 46.2277 11.374C46.1491 11.77 46.0549 12.144 45.9449 12.496C45.8349 12.8333 45.7328 13.1047 45.6386 13.31C45.9685 12.7527 46.3298 12.2173 46.7225 11.704C47.131 11.176 47.5708 10.7507 48.0421 10.428C48.5134 10.0907 49.0161 9.922 49.5502 9.922C50.0529 9.922 50.3986 10.0613 50.5871 10.34C50.7913 10.6187 50.8934 10.9487 50.8934 11.33C50.8934 11.7113 50.8227 12.1293 50.6813 12.584C50.5399 13.0387 50.3907 13.4787 50.2336 13.904C50.0922 14.3293 50.0215 14.696 50.0215 15.004C50.0215 15.1947 50.0687 15.3707 50.1629 15.532C50.2729 15.6787 50.4614 15.752 50.7285 15.752C51.1683 15.752 51.5768 15.5687 51.9538 15.202C52.3465 14.8207 52.7079 14.366 53.0378 13.838C53.3677 13.2953 53.6504 12.7747 53.8861 12.276L54.1688 12.584C53.9175 13.2 53.5954 13.816 53.2027 14.432C52.81 15.0333 52.3465 15.532 51.8124 15.928C51.294 16.324 50.7206 16.522 50.0922 16.522Z" fill="#F5F5F5"/>
<path d="M55.1464 16.412C54.5337 16.412 54.0781 16.2287 53.7797 15.862C53.4812 15.51 53.3319 15.0773 53.3319 14.564C53.3319 14.2267 53.3948 13.8013 53.5205 13.288C53.6618 12.7747 53.8425 12.2393 54.0624 11.682C54.2824 11.11 54.5337 10.5747 54.8165 10.076C55.115 9.57733 55.4292 9.174 55.7591 8.866C56.089 8.54333 56.411 8.382 56.7252 8.382C56.8666 8.382 56.9844 8.426 57.0787 8.514C57.1886 8.58733 57.2436 8.70467 57.2436 8.866C57.2436 9.042 57.1179 9.328 56.8666 9.724C56.631 10.12 56.3482 10.5747 56.0183 11.088C55.6884 11.6013 55.3978 12.144 55.1464 12.716C54.9108 13.2733 54.7929 13.8087 54.7929 14.322C54.7929 14.85 54.8872 15.202 55.0757 15.378C55.2642 15.554 55.5548 15.642 55.9476 15.642C56.4817 15.642 57.0473 15.3927 57.6442 14.894C58.2569 14.3953 58.901 13.5227 59.5765 12.276L59.7886 12.496C59.333 13.7573 58.6732 14.7253 57.8092 15.4C56.9609 16.0747 56.0733 16.412 55.1464 16.412ZM57.9741 6.336C57.7228 6.336 57.495 6.27733 57.2908 6.16C57.1022 6.04267 57.008 5.85933 57.008 5.61C57.008 5.302 57.1965 5.038 57.5735 4.818C57.9663 4.58333 58.3511 4.466 58.7282 4.466C58.9638 4.466 59.1523 4.51733 59.2937 4.62C59.4351 4.72267 59.5058 4.89867 59.5058 5.148C59.5058 5.42667 59.3409 5.698 59.0109 5.962C58.6968 6.21133 58.3511 6.336 57.9741 6.336Z" fill="#F5F5F5"/>
<path d="M61.0896 16.5C60.4141 16.5 59.9271 16.28 59.6286 15.84C59.3458 15.4147 59.2044 14.8793 59.2044 14.234C59.2044 13.53 59.3458 12.694 59.6286 11.726C59.9114 10.758 60.2805 9.73867 60.7361 8.668C61.2074 7.59733 61.718 6.556 62.2678 5.544C62.8176 4.51733 63.3675 3.586 63.9173 2.75C64.4671 1.914 64.9698 1.24667 65.4254 0.748C65.8967 0.249333 66.2659 0 66.5329 0C66.7057 0 66.8471 0.0953334 66.9571 0.286C67.0671 0.462 67.1535 0.682 67.2163 0.946C67.2791 1.19533 67.3106 1.42267 67.3106 1.628C67.3106 2.024 67.2006 2.54467 66.9807 3.19C66.7764 3.82067 66.478 4.532 66.0852 5.324C65.7082 6.10133 65.2526 6.89333 64.7185 7.7C64.2001 8.492 63.6267 9.25467 62.9983 9.988C62.3856 10.7213 61.7337 11.352 61.0424 11.88C60.9482 12.276 60.8696 12.6647 60.8068 13.046C60.7597 13.4127 60.7361 13.7647 60.7361 14.102C60.7361 14.674 60.8225 15.0993 60.9953 15.378C61.1681 15.6567 61.4273 15.796 61.7729 15.796C62.1971 15.796 62.6134 15.62 63.0219 15.268C63.446 14.916 63.8388 14.476 64.2001 13.948C64.5771 13.4053 64.8991 12.848 65.1662 12.276L65.5197 12.452C64.8913 13.6987 64.2079 14.6887 63.4696 15.422C62.7312 16.1407 61.9379 16.5 61.0896 16.5ZM61.2545 11.132C61.8044 10.6187 62.3385 10.032 62.8569 9.372C63.3753 8.69733 63.8545 8.00067 64.2943 7.282C64.7499 6.56333 65.1505 5.86667 65.4961 5.192C65.8417 4.51733 66.1088 3.916 66.2973 3.388C66.4858 2.84533 66.5801 2.42733 66.5801 2.134C66.5801 1.98733 66.5565 1.892 66.5094 1.848C66.478 1.804 66.4465 1.782 66.4151 1.782C66.2894 1.782 66.0695 1.97267 65.7553 2.354C65.4568 2.72067 65.1034 3.21933 64.6949 3.85C64.2865 4.48067 63.8702 5.19933 63.446 6.006C63.0219 6.81267 62.6134 7.656 62.2207 8.536C61.8436 9.416 61.5216 10.2813 61.2545 11.132Z" fill="#F5F5F5"/>
<path d="M65.8337 16.874C65.3467 16.874 64.9383 16.72 64.6084 16.412C64.2628 16.1187 64.09 15.664 64.09 15.048C64.09 14.52 64.2157 13.9553 64.467 13.354C64.7184 12.738 65.064 12.1367 65.5038 11.55C65.9437 10.9487 66.4386 10.406 66.9884 9.922C67.5539 9.42333 68.143 9.02733 68.7557 8.734C69.3841 8.44067 70.0046 8.294 70.6173 8.294C71.23 8.294 71.7405 8.448 72.149 8.756C72.5574 9.04933 72.7617 9.44533 72.7617 9.944C72.7617 10.3107 72.6517 10.56 72.4318 10.692C72.2275 10.824 71.9526 10.89 71.607 10.89C71.6384 10.7727 71.662 10.648 71.6777 10.516C71.7091 10.3693 71.7248 10.2373 71.7248 10.12C71.7248 9.78267 71.6384 9.49667 71.4656 9.262C71.2928 9.01267 70.9943 8.888 70.5702 8.888C70.1303 8.888 69.6826 9.03467 69.227 9.328C68.7714 9.60667 68.3316 9.988 67.9074 10.472C67.4832 10.9413 67.1062 11.4547 66.7763 12.012C66.4464 12.5693 66.1872 13.1193 65.9987 13.662C65.8102 14.2047 65.7159 14.6887 65.7159 15.114C65.7159 15.686 65.928 15.972 66.3522 15.972C66.7135 15.972 67.1062 15.818 67.5304 15.51C67.9545 15.1873 68.3865 14.784 68.8264 14.3C69.282 13.8013 69.714 13.288 70.1225 12.76C70.5309 12.232 70.8922 11.748 71.2064 11.308C71.2692 11.22 71.3085 11.176 71.3242 11.176C71.4185 11.1907 71.5363 11.22 71.6777 11.264C71.8348 11.308 71.9683 11.3667 72.0783 11.44C72.1883 11.5133 72.2432 11.6087 72.2432 11.726C72.2432 11.858 72.1725 12.0413 72.0312 12.276C71.8898 12.496 71.7327 12.7527 71.5599 13.046C71.3871 13.3393 71.23 13.64 71.0886 13.948C70.9472 14.2413 70.8765 14.52 70.8765 14.784C70.8765 15.004 70.9393 15.224 71.065 15.444C71.1907 15.6493 71.3949 15.752 71.6777 15.752C72.1019 15.752 72.6595 15.466 73.3508 14.894C74.042 14.3073 74.7411 13.4347 75.448 12.276L75.6836 12.496C75.3537 13.288 74.9296 13.9847 74.4112 14.586C73.8927 15.1873 73.3351 15.6567 72.7381 15.994C72.1568 16.3313 71.5834 16.5 71.0179 16.5C70.4366 16.5 70.0046 16.3387 69.7219 16.016C69.4548 15.6933 69.3213 15.3413 69.3213 14.96C69.3213 14.872 69.3291 14.7767 69.3448 14.674C69.3605 14.5567 69.3762 14.4393 69.392 14.322C68.7164 15.1727 68.0959 15.8107 67.5304 16.236C66.9805 16.6613 66.415 16.874 65.8337 16.874Z" fill="#F5F5F5"/>
<path d="M81.4878 17.754C81.1422 17.5633 80.9223 17.358 80.828 17.138C80.7338 16.9327 80.6866 16.7567 80.6866 16.61C80.6866 16.1993 80.8437 15.642 81.1579 14.938C81.4878 14.234 81.9198 13.4347 82.454 12.54C83.0038 11.6307 83.6086 10.692 84.2684 9.724C83.6872 9.68 83.1923 9.65067 82.7839 9.636C82.3754 9.62133 82.0219 9.614 81.7235 9.614H80.8987C81.0715 9.18867 81.37 8.89533 81.7942 8.734C82.234 8.558 82.7524 8.47 83.3494 8.47C83.6165 8.47 83.8914 8.48467 84.1742 8.514C84.4569 8.54333 84.7476 8.58 85.046 8.624C85.8472 7.49467 86.6641 6.402 87.4967 5.346C88.345 4.27533 89.1305 3.32933 89.8532 2.508C90.5915 1.672 91.2042 1.04133 91.6912 0.616C92.1468 0.205333 92.5238 0 92.8223 0C92.9951 0 93.1836 0.066 93.3878 0.198C93.6077 0.315334 93.8355 0.484 94.0712 0.704C93.9141 0.821334 93.7099 1.13667 93.4585 1.65C93.2229 2.14867 92.9636 2.77933 92.6809 3.542C92.4138 4.30467 92.1468 5.14067 91.8797 6.05C91.6126 6.95933 91.3613 7.89067 91.1256 8.844C90.9057 9.78267 90.725 10.6773 90.5837 11.528C90.458 12.3787 90.3951 13.1267 90.3951 13.772C90.3951 14.3293 90.458 14.762 90.5837 15.07C90.725 15.378 90.9528 15.532 91.267 15.532C91.6755 15.532 92.1389 15.268 92.6573 14.74C93.1757 14.212 93.7413 13.3907 94.3539 12.276L94.5896 12.496C94.1183 13.6693 93.5135 14.63 92.7751 15.378C92.0525 16.126 91.2984 16.5 90.513 16.5C89.8689 16.5 89.3976 16.236 89.0991 15.708C88.8163 15.1653 88.6749 14.4467 88.6749 13.552C88.6749 13.0827 88.7064 12.5693 88.7692 12.012C88.8477 11.4547 88.9499 10.8753 89.0755 10.274C88.3843 10.1713 87.7481 10.0907 87.1668 10.032C86.6013 9.95867 86.075 9.89267 85.588 9.834C84.8497 11.11 84.127 12.4227 83.4201 13.772C82.7289 15.1213 82.0848 16.4487 81.4878 17.754ZM89.2405 9.504C89.4761 8.536 89.751 7.56067 90.0652 6.578C90.3794 5.58067 90.7093 4.63467 91.0549 3.74C91.4163 2.84533 91.754 2.06067 92.0682 1.386C91.5812 1.66467 91.0157 2.16333 90.3716 2.882C89.7432 3.586 89.0755 4.45133 88.3686 5.478C87.6617 6.49 86.939 7.60467 86.2007 8.822C86.7348 8.92467 87.2611 9.042 87.7795 9.174C88.3136 9.29133 88.8006 9.40133 89.2405 9.504Z" fill="#F5F5F5"/>
<path d="M93.7641 22C93.2771 22 92.9001 21.912 92.633 21.736C92.3502 21.5747 92.2089 21.2887 92.2089 20.878C92.2089 20.4087 92.3817 19.9687 92.7273 19.558C93.0572 19.162 93.5049 18.7807 94.0704 18.414C94.636 18.0473 95.2565 17.6733 95.932 17.292C96.6232 16.9253 97.3066 16.5293 97.9821 16.104C97.9821 15.576 97.8643 15.092 97.6287 14.652C97.393 14.212 96.9689 13.7647 96.3562 13.31C96.906 13.1633 97.3694 12.9067 97.7465 12.54C98.1392 12.1733 98.4298 11.77 98.6184 11.33C98.8226 10.8753 98.9247 10.4573 98.9247 10.076C98.9247 9.73867 98.8461 9.46 98.689 9.24C98.5477 9.02 98.3199 8.91 98.0057 8.91C97.4873 8.91 97.0238 9.09333 96.6154 9.46C96.2069 9.82667 95.8299 10.3107 95.4843 10.912C95.1387 11.5133 94.7852 12.1733 94.4239 12.892L94.1411 12.672C94.4867 11.792 94.8402 11.0073 95.2015 10.318C95.5786 9.62867 96.0184 9.086 96.5211 8.69C97.0238 8.27933 97.6287 8.074 98.3356 8.074C98.8697 8.074 99.3253 8.23533 99.7023 8.558C100.095 8.88067 100.291 9.32067 100.291 9.878C100.291 10.406 100.158 10.8973 99.8908 11.352C99.6238 11.8067 99.2781 12.21 98.854 12.562C98.4298 12.8993 97.9821 13.178 97.5108 13.398C97.9193 13.6913 98.257 14.0067 98.5241 14.344C98.8069 14.6667 99.0189 15.0113 99.1603 15.378C99.7573 14.9527 100.284 14.4907 100.739 13.992C101.21 13.4787 101.556 12.9067 101.776 12.276L102.035 12.54C101.815 13.2 101.462 13.8013 100.975 14.344C100.488 14.872 99.9301 15.356 99.3017 15.796C99.3331 15.8987 99.3567 16.016 99.3724 16.148C99.3881 16.28 99.396 16.4047 99.396 16.522C99.396 17.182 99.2389 17.8347 98.9247 18.48C98.6105 19.14 98.1863 19.734 97.6522 20.262C97.1181 20.79 96.5133 21.208 95.8378 21.516C95.178 21.8387 94.4867 22 93.7641 22ZM93.5991 21.362C93.8819 21.362 94.2511 21.252 94.7067 21.032C95.1623 20.8267 95.6257 20.5187 96.097 20.108C96.5683 19.712 96.9767 19.2207 97.3223 18.634C97.6679 18.0473 97.88 17.3727 97.9586 16.61C97.3302 16.9767 96.7096 17.3213 96.097 17.644C95.5 17.9813 94.958 18.304 94.471 18.612C93.984 18.9347 93.5991 19.2573 93.3164 19.58C93.0179 19.9173 92.8687 20.2693 92.8687 20.636C92.8687 20.8853 92.9394 21.0687 93.0807 21.186C93.2221 21.3033 93.3949 21.362 93.5991 21.362Z" fill="#F5F5F5"/>
<path d="M102.492 16.874C102.005 16.874 101.596 16.72 101.267 16.412C100.921 16.1187 100.748 15.664 100.748 15.048C100.748 14.52 100.874 13.9553 101.125 13.354C101.377 12.738 101.722 12.1367 102.162 11.55C102.602 10.9487 103.097 10.406 103.647 9.922C104.212 9.42333 104.801 9.02733 105.414 8.734C106.042 8.44067 106.663 8.294 107.275 8.294C107.888 8.294 108.399 8.448 108.807 8.756C109.216 9.04933 109.42 9.44533 109.42 9.944C109.42 10.3107 109.31 10.56 109.09 10.692C108.886 10.824 108.611 10.89 108.265 10.89C108.297 10.7727 108.32 10.648 108.336 10.516C108.367 10.3693 108.383 10.2373 108.383 10.12C108.383 9.78267 108.297 9.49667 108.124 9.262C107.951 9.01267 107.653 8.888 107.228 8.888C106.788 8.888 106.341 9.03467 105.885 9.328C105.43 9.60667 104.99 9.988 104.566 10.472C104.141 10.9413 103.764 11.4547 103.434 12.012C103.105 12.5693 102.845 13.1193 102.657 13.662C102.468 14.2047 102.374 14.6887 102.374 15.114C102.374 15.686 102.586 15.972 103.01 15.972C103.372 15.972 103.764 15.818 104.189 15.51C104.613 15.1873 105.045 14.784 105.485 14.3C105.94 13.8013 106.372 13.288 106.781 12.76C107.189 12.232 107.55 11.748 107.865 11.308C107.927 11.22 107.967 11.176 107.982 11.176C108.077 11.1907 108.194 11.22 108.336 11.264C108.493 11.308 108.627 11.3667 108.736 11.44C108.846 11.5133 108.901 11.6087 108.901 11.726C108.901 11.858 108.831 12.0413 108.689 12.276C108.548 12.496 108.391 12.7527 108.218 13.046C108.045 13.3393 107.888 13.64 107.747 13.948C107.605 14.2413 107.535 14.52 107.535 14.784C107.535 15.004 107.598 15.224 107.723 15.444C107.849 15.6493 108.053 15.752 108.336 15.752C108.76 15.752 109.318 15.466 110.009 14.894C110.7 14.3073 111.399 13.4347 112.106 12.276L112.342 12.496C112.012 13.288 111.588 13.9847 111.069 14.586C110.551 15.1873 109.993 15.6567 109.396 15.994C108.815 16.3313 108.242 16.5 107.676 16.5C107.095 16.5 106.663 16.3387 106.38 16.016C106.113 15.6933 105.979 15.3413 105.979 14.96C105.979 14.872 105.987 14.7767 106.003 14.674C106.019 14.5567 106.034 14.4393 106.05 14.322C105.375 15.1727 104.754 15.8107 104.189 16.236C103.639 16.6613 103.073 16.874 102.492 16.874Z" fill="#F5F5F5"/>
<path d="M115.701 16.412C115.167 16.412 114.743 16.28 114.428 16.016C114.13 15.752 113.981 15.4073 113.981 14.982C113.981 14.542 114.091 14.08 114.311 13.596C114.53 13.112 114.743 12.6353 114.947 12.166C115.167 11.682 115.277 11.2493 115.277 10.868C115.277 10.3987 115.127 10.054 114.829 9.834C114.546 9.59933 114.256 9.38667 113.957 9.196C113.596 10.0613 113.219 10.8827 112.826 11.66C112.433 12.4373 112.111 13.024 111.86 13.42L111.648 13.046C111.868 12.6647 112.15 12.1073 112.496 11.374C112.857 10.6407 113.211 9.80467 113.556 8.866C113.399 8.71933 113.321 8.54333 113.321 8.338C113.321 7.898 113.454 7.53867 113.721 7.26C113.988 6.98133 114.185 6.842 114.311 6.842C114.483 6.842 114.578 6.91533 114.593 7.062C114.625 7.194 114.64 7.29667 114.64 7.37C114.64 7.44333 114.593 7.59 114.499 7.81C114.421 8.01533 114.381 8.14 114.381 8.184C114.381 8.38933 114.499 8.58 114.735 8.756C114.986 8.91733 115.269 9.108 115.583 9.328C115.897 9.53333 116.172 9.79 116.408 10.098C116.659 10.3913 116.785 10.7727 116.785 11.242C116.785 11.682 116.683 12.1293 116.478 12.584C116.29 13.0387 116.094 13.4713 115.889 13.882C115.701 14.2927 115.607 14.652 115.607 14.96C115.607 15.224 115.677 15.4 115.819 15.488C115.96 15.576 116.125 15.62 116.314 15.62C116.691 15.62 117.075 15.51 117.468 15.29C117.877 15.07 118.269 14.7913 118.646 14.454C119.023 14.1167 119.361 13.7647 119.66 13.398C119.958 13.0167 120.178 12.6647 120.319 12.342L120.626 12.562C120.327 13.178 119.919 13.7867 119.4 14.388C118.882 14.9747 118.301 15.4587 117.657 15.84C117.028 16.2213 116.376 16.412 115.701 16.412Z" fill="#F5F5F5"/>
<path d="M121.442 16.544C120.767 16.544 120.288 16.346 120.005 15.95C119.722 15.5687 119.581 15.0993 119.581 14.542C119.581 14.0873 119.659 13.618 119.816 13.134C119.974 12.65 120.178 12.1953 120.429 11.77C120.696 11.3447 120.987 11 121.301 10.736C121.631 10.472 121.961 10.34 122.291 10.34C122.369 10.34 122.448 10.3547 122.526 10.384C122.621 10.3987 122.707 10.4207 122.786 10.45C122.644 10.5673 122.471 10.7873 122.267 11.11C122.079 11.418 121.898 11.7773 121.725 12.188C121.552 12.584 121.403 12.98 121.277 13.376C121.168 13.772 121.113 14.1093 121.113 14.388C121.113 14.828 121.191 15.1507 121.348 15.356C121.505 15.5467 121.709 15.642 121.961 15.642C122.291 15.642 122.683 15.4807 123.139 15.158C123.595 14.8207 124.042 14.3953 124.482 13.882C124.042 13.5447 123.697 13.1047 123.445 12.562C123.21 12.0047 123.092 11.44 123.092 10.868C123.092 10.384 123.178 9.92933 123.351 9.504C123.54 9.07867 123.807 8.74133 124.152 8.492C124.498 8.228 124.914 8.096 125.401 8.096C126.045 8.096 126.477 8.25733 126.697 8.58C126.917 8.90267 127.027 9.306 127.027 9.79C127.027 10.362 126.878 11 126.579 11.704C126.281 12.3933 125.904 13.0607 125.448 13.706C125.731 13.8527 126.03 13.926 126.344 13.926C126.595 13.926 126.878 13.882 127.192 13.794C127.506 13.6913 127.813 13.5227 128.111 13.288C128.425 13.0533 128.677 12.738 128.865 12.342L129.148 12.562C128.834 13.2513 128.386 13.7427 127.805 14.036C127.239 14.3147 126.697 14.454 126.179 14.454C125.975 14.454 125.778 14.4393 125.59 14.41C125.401 14.366 125.221 14.3073 125.048 14.234C124.514 14.894 123.925 15.444 123.28 15.884C122.652 16.324 122.039 16.544 121.442 16.544ZM124.906 13.31C125.299 12.7673 125.621 12.2027 125.873 11.616C126.14 11.0147 126.273 10.45 126.273 9.922C126.273 9.49667 126.202 9.18867 126.061 8.998C125.935 8.79267 125.77 8.69 125.566 8.69C125.252 8.69 124.93 8.90267 124.6 9.328C124.27 9.75333 124.105 10.2887 124.105 10.934C124.105 11.3593 124.168 11.792 124.294 12.232C124.435 12.6573 124.639 13.0167 124.906 13.31Z" fill="#F5F5F5"/>
<path d="M129.955 16.698C129.468 16.698 129.13 16.4707 128.941 16.016C128.753 15.576 128.659 14.9967 128.659 14.278C128.659 14.2487 128.666 14.0213 128.682 13.596C128.698 13.156 128.737 12.4227 128.8 11.396C128.831 11 128.879 10.7287 128.941 10.582C129.004 10.4353 129.208 10.362 129.554 10.362C129.821 10.362 129.986 10.4133 130.049 10.516C130.127 10.604 130.167 10.7873 130.167 11.066C130.167 11.55 130.127 12.122 130.049 12.782C129.986 13.4273 129.955 14.036 129.955 14.608C129.955 15.0333 129.994 15.3487 130.072 15.554C130.151 15.7447 130.292 15.84 130.497 15.84C130.779 15.84 131.094 15.6933 131.439 15.4C131.785 15.092 132.138 14.696 132.5 14.212C132.861 13.7133 133.199 13.1853 133.513 12.628C133.843 12.0707 134.133 11.5353 134.385 11.022C134.416 10.0247 134.526 9.36467 134.715 9.042C134.919 8.70467 135.17 8.536 135.469 8.536C135.767 8.536 135.979 8.63867 136.105 8.844C136.246 9.03467 136.317 9.21067 136.317 9.372C136.317 9.56267 136.246 9.76067 136.105 9.966C135.979 10.1713 135.846 10.45 135.704 10.802C135.563 11.154 135.492 11.66 135.492 12.32C135.492 12.5547 135.516 12.804 135.563 13.068C135.61 13.332 135.712 13.552 135.869 13.728C136.026 13.904 136.27 13.992 136.6 13.992C136.93 13.992 137.244 13.8747 137.542 13.64C137.857 13.3907 138.163 12.9653 138.461 12.364L138.768 12.584C138.422 13.3173 138.037 13.8087 137.613 14.058C137.205 14.3073 136.812 14.432 136.435 14.432C135.916 14.432 135.484 14.256 135.139 13.904C134.793 13.552 134.565 13.0167 134.455 12.298C134.078 13.0167 133.631 13.7133 133.112 14.388C132.61 15.048 132.083 15.598 131.533 16.038C130.984 16.478 130.457 16.698 129.955 16.698Z" fill="#F5F5F5"/>
<path d="M139.15 16.874C138.663 16.874 138.255 16.72 137.925 16.412C137.579 16.1187 137.406 15.664 137.406 15.048C137.406 14.52 137.532 13.9553 137.783 13.354C138.035 12.738 138.38 12.1367 138.82 11.55C139.26 10.9487 139.755 10.406 140.305 9.922C140.87 9.42333 141.459 9.02733 142.072 8.734C142.7 8.44067 143.321 8.294 143.934 8.294C144.546 8.294 145.057 8.448 145.465 8.756C145.874 9.04933 146.078 9.44533 146.078 9.944C146.078 10.3107 145.968 10.56 145.748 10.692C145.544 10.824 145.269 10.89 144.923 10.89C144.955 10.7727 144.978 10.648 144.994 10.516C145.025 10.3693 145.041 10.2373 145.041 10.12C145.041 9.78267 144.955 9.49667 144.782 9.262C144.609 9.01267 144.311 8.888 143.887 8.888C143.447 8.888 142.999 9.03467 142.543 9.328C142.088 9.60667 141.648 9.988 141.224 10.472C140.8 10.9413 140.423 11.4547 140.093 12.012C139.763 12.5693 139.504 13.1193 139.315 13.662C139.127 14.2047 139.032 14.6887 139.032 15.114C139.032 15.686 139.244 15.972 139.669 15.972C140.03 15.972 140.423 15.818 140.847 15.51C141.271 15.1873 141.703 14.784 142.143 14.3C142.598 13.8013 143.03 13.288 143.439 12.76C143.847 12.232 144.209 11.748 144.523 11.308C144.586 11.22 144.625 11.176 144.641 11.176C144.735 11.1907 144.853 11.22 144.994 11.264C145.151 11.308 145.285 11.3667 145.395 11.44C145.505 11.5133 145.56 11.6087 145.56 11.726C145.56 11.858 145.489 12.0413 145.348 12.276C145.206 12.496 145.049 12.7527 144.876 13.046C144.703 13.3393 144.546 13.64 144.405 13.948C144.264 14.2413 144.193 14.52 144.193 14.784C144.193 15.004 144.256 15.224 144.381 15.444C144.507 15.6493 144.711 15.752 144.994 15.752C145.418 15.752 145.976 15.466 146.667 14.894C147.358 14.3073 148.057 13.4347 148.764 12.276L149 12.496C148.67 13.288 148.246 13.9847 147.728 14.586C147.209 15.1873 146.651 15.6567 146.054 15.994C145.473 16.3313 144.9 16.5 144.334 16.5C143.753 16.5 143.321 16.3387 143.038 16.016C142.771 15.6933 142.638 15.3413 142.638 14.96C142.638 14.872 142.645 14.7767 142.661 14.674C142.677 14.5567 142.693 14.4393 142.708 14.322C142.033 15.1727 141.412 15.8107 140.847 16.236C140.297 16.6613 139.731 16.874 139.15 16.874Z" fill="#F5F5F5"/>
<path d="M1.69768 31.3556L2.89162 28.0535H3.47328L1.9732 31.9465H1.55852L1.69768 31.3556ZM0.581663 28.0535L1.76447 31.3556L1.91197 31.9465H1.49729L0 28.0535H0.581663Z" fill="#F5F5F5"/>
<path d="M6.36178 28.0535V31.9465H5.82464V28.0535H6.36178Z" fill="#F5F5F5"/>
<path d="M11.6799 31.5267V31.9465H9.53415V31.5267H11.6799ZM9.64269 28.0535V31.9465H9.10556V28.0535H9.64269ZM11.396 29.7273V30.1471H9.53415V29.7273H11.396ZM11.6521 28.0535V28.4759H9.53415V28.0535H11.6521Z" fill="#F5F5F5"/>
<path d="M17.229 28.0535V31.9465H16.6891L14.6491 28.9439V31.9465H14.112V28.0535H14.6491L16.6975 31.0642V28.0535H17.229Z" fill="#F5F5F5"/>
<path d="M23.0648 28.0535V31.9465H22.5249L20.4849 28.9439V31.9465H19.9477V28.0535H20.4849L22.5332 31.0642V28.0535H23.0648Z" fill="#F5F5F5"/>
<path d="M27.3337 28.3984L25.9923 31.9465H25.444L26.9886 28.0535H27.342L27.3337 28.3984ZM28.4581 31.9465L27.1138 28.3984L27.1055 28.0535H27.4589L29.0091 31.9465H28.4581ZM28.3885 30.5053V30.9278H26.1119V30.5053H28.3885Z" fill="#F5F5F5"/>
<path d="M35.9439 30.1257H34.9169L34.9113 29.7112H35.8437C35.9977 29.7112 36.1322 29.6863 36.2472 29.6364C36.3623 29.5865 36.4513 29.5152 36.5144 29.4225C36.5793 29.328 36.6118 29.2157 36.6118 29.0856C36.6118 28.943 36.583 28.8271 36.5255 28.738C36.4699 28.6471 36.3836 28.5811 36.2667 28.5401C36.1517 28.4973 36.0051 28.4759 35.827 28.4759H35.0366V31.9465H34.4995V28.0535H35.827C36.0348 28.0535 36.2203 28.074 36.3836 28.115C36.5469 28.1542 36.6851 28.2166 36.7983 28.3021C36.9133 28.3859 37.0005 28.4929 37.0599 28.623C37.1193 28.7531 37.1489 28.9091 37.1489 29.0909C37.1489 29.2513 37.1063 29.3966 37.0209 29.5267C36.9356 29.6551 36.8168 29.7602 36.6647 29.8422C36.5144 29.9242 36.3381 29.9768 36.1359 30L35.9439 30.1257ZM35.9188 31.9465H34.7054L35.0088 31.5267H35.9188C36.0895 31.5267 36.2342 31.4982 36.353 31.4412C36.4736 31.3841 36.5654 31.3039 36.6285 31.2005C36.6916 31.0954 36.7231 30.9715 36.7231 30.8289C36.7231 30.6845 36.6962 30.5597 36.6424 30.4545C36.5886 30.3494 36.5042 30.2683 36.3892 30.2112C36.2741 30.1542 36.1257 30.1257 35.9439 30.1257H35.1785L35.1841 29.7112H36.2305L36.3446 29.861C36.5394 29.877 36.7046 29.9305 36.84 30.0214C36.9755 30.1105 37.0784 30.2246 37.1489 30.3636C37.2213 30.5027 37.2575 30.656 37.2575 30.8235C37.2575 31.066 37.2018 31.2709 37.0905 31.4385C36.981 31.6043 36.8261 31.7308 36.6257 31.8182C36.4253 31.9037 36.1897 31.9465 35.9188 31.9465Z" fill="#F5F5F5"/>
<path d="M39.8176 28.0535H41.159C41.4633 28.0535 41.7203 28.098 41.9299 28.1872C42.1414 28.2763 42.3019 28.4082 42.4114 28.5829C42.5227 28.7558 42.5784 28.9688 42.5784 29.2219C42.5784 29.4002 42.5403 29.5633 42.4643 29.7112C42.3901 29.8574 42.2825 29.9822 42.1414 30.0856C42.0023 30.1872 41.8353 30.2629 41.6405 30.3128L41.4902 30.369H40.2295L40.2239 29.9492H41.1757C41.3687 29.9492 41.5292 29.9171 41.6572 29.8529C41.7852 29.787 41.8817 29.6988 41.9466 29.5882C42.0116 29.4777 42.044 29.3556 42.044 29.2219C42.044 29.0722 42.0134 28.9412 41.9522 28.8289C41.891 28.7166 41.7945 28.6301 41.6628 28.5695C41.5329 28.5071 41.365 28.4759 41.159 28.4759H40.3547V31.9465H39.8176V28.0535ZM42.186 31.9465L41.2008 30.1818L41.7602 30.1791L42.7593 31.9144V31.9465H42.186Z" fill="#F5F5F5"/>
<path d="M46.5968 28.3984L45.2554 31.9465H44.7071L46.2517 28.0535H46.6052L46.5968 28.3984ZM47.7212 31.9465L46.3769 28.3984L46.3686 28.0535H46.7221L48.2722 31.9465H47.7212ZM47.6516 30.5053V30.9278H45.375V30.5053H47.6516Z" fill="#F5F5F5"/>
<path d="M51.7173 28.0535V31.9465H51.1886V28.0535H51.7173ZM53.0198 28.0535V28.4759H49.8889V28.0535H53.0198Z" fill="#F5F5F5"/>
<path d="M55.964 28.0535V31.9465H55.4268V28.0535H55.964Z" fill="#F5F5F5"/>
<path d="M60.8674 30.9626C60.8674 30.8717 60.8526 30.7914 60.8229 30.7219C60.7951 30.6506 60.745 30.5865 60.6726 30.5294C60.6021 30.4724 60.5038 30.418 60.3776 30.3663C60.2533 30.3146 60.0956 30.262 59.9045 30.2086C59.7041 30.1515 59.5232 30.0882 59.3618 30.0187C59.2004 29.9474 59.0621 29.8663 58.9471 29.7754C58.8321 29.6845 58.7439 29.5802 58.6827 29.4626C58.6215 29.3449 58.5909 29.2103 58.5909 29.0588C58.5909 28.9073 58.6233 28.7674 58.6883 28.639C58.7532 28.5107 58.846 28.3993 58.9666 28.3048C59.089 28.2086 59.2347 28.1337 59.4035 28.0802C59.5724 28.0267 59.7607 28 59.9685 28C60.2728 28 60.5307 28.0561 60.7422 28.1684C60.9556 28.279 61.1179 28.4242 61.2292 28.6043C61.3405 28.7825 61.3962 28.9733 61.3962 29.1765H60.8619C60.8619 29.0303 60.8294 28.9011 60.7644 28.7888C60.6995 28.6747 60.6012 28.5856 60.4694 28.5214C60.3377 28.4554 60.1707 28.4225 59.9685 28.4225C59.7774 28.4225 59.6197 28.4501 59.4954 28.5053C59.3711 28.5606 59.2783 28.6355 59.2171 28.7299C59.1577 28.8244 59.128 28.9323 59.128 29.0535C59.128 29.1355 59.1456 29.2103 59.1809 29.2781C59.218 29.344 59.2746 29.4055 59.3506 29.4626C59.4286 29.5196 59.5269 29.5722 59.6457 29.6203C59.7663 29.6684 59.91 29.7148 60.077 29.7594C60.3071 29.8217 60.5056 29.8913 60.6726 29.9679C60.8396 30.0446 60.9769 30.131 61.0845 30.2273C61.194 30.3217 61.2747 30.4296 61.3266 30.5508C61.3804 30.6702 61.4073 30.8057 61.4073 30.9572C61.4073 31.1159 61.3739 31.2594 61.3071 31.3877C61.2404 31.516 61.1448 31.6257 61.0205 31.7166C60.8962 31.8075 60.7468 31.8779 60.5724 31.9278C60.3999 31.9759 60.2069 32 59.9935 32C59.8061 32 59.6215 31.975 59.4397 31.9251C59.2597 31.8752 59.0955 31.8004 58.9471 31.7005C58.8005 31.6007 58.6827 31.4777 58.5937 31.3316C58.5064 31.1836 58.4628 31.0125 58.4628 30.8182H58.9972C58.9972 30.9519 59.0241 31.0668 59.0779 31.1631C59.1317 31.2576 59.205 31.336 59.2978 31.3984C59.3924 31.4608 59.4991 31.5071 59.6178 31.5374C59.7384 31.566 59.8637 31.5802 59.9935 31.5802C60.1809 31.5802 60.3396 31.5553 60.4694 31.5053C60.5993 31.4554 60.6977 31.3841 60.7644 31.2914C60.8331 31.1988 60.8674 31.0891 60.8674 30.9626Z" fill="#F5F5F5"/>
<path d="M66.3163 31.5267V31.9465H64.2903V31.5267H66.3163ZM64.396 28.0535V31.9465H63.8589V28.0535H64.396Z" fill="#F5F5F5"/>
<path d="M70.2541 28.3984L68.9126 31.9465H68.3644L69.909 28.0535H70.2624L70.2541 28.3984ZM71.3784 31.9465L70.0342 28.3984L70.0259 28.0535H70.3793L71.9295 31.9465H71.3784ZM71.3089 30.5053V30.9278H69.0323V30.5053H71.3089Z" fill="#F5F5F5"/>
<path d="M75.3022 31.3556L76.4962 28.0535H77.0778L75.5778 31.9465H75.1631L75.3022 31.3556ZM74.1862 28.0535L75.369 31.3556L75.5165 31.9465H75.1019L73.6046 28.0535H74.1862Z" fill="#F5F5F5"/>
<path d="M80.6788 28.3984L79.3374 31.9465H78.7891L80.3337 28.0535H80.6871L80.6788 28.3984ZM81.8032 31.9465L80.4589 28.3984L80.4506 28.0535H80.804L82.3542 31.9465H81.8032ZM81.7336 30.5053V30.9278H79.457V30.5053H81.7336Z" fill="#F5F5F5"/>
<path d="M89.3391 30.4198H88.2564V30H89.3391C89.5487 30 89.7185 29.9679 89.8484 29.9037C89.9782 29.8396 90.0729 29.7504 90.1322 29.6364C90.1935 29.5223 90.2241 29.3922 90.2241 29.246C90.2241 29.1123 90.1935 28.9866 90.1322 28.869C90.0729 28.7513 89.9782 28.6569 89.8484 28.5856C89.7185 28.5125 89.5487 28.4759 89.3391 28.4759H88.3817V31.9465H87.8446V28.0535H89.3391C89.6452 28.0535 89.904 28.1043 90.1155 28.2059C90.3271 28.3075 90.4875 28.4483 90.597 28.6283C90.7065 28.8066 90.7612 29.0107 90.7612 29.2406C90.7612 29.4902 90.7065 29.7032 90.597 29.8797C90.4875 30.0561 90.3271 30.1907 90.1155 30.2834C89.904 30.3743 89.6452 30.4198 89.3391 30.4198Z" fill="#F5F5F5"/>
<path d="M95.8539 29.7273V30.1471H93.6608V29.7273H95.8539ZM93.7443 28.0535V31.9465H93.2072V28.0535H93.7443ZM96.3215 28.0535V31.9465H95.7871V28.0535H96.3215Z" fill="#F5F5F5"/>
<path d="M102.163 29.877V30.123C102.163 30.4153 102.125 30.6774 102.049 30.9091C101.973 31.1408 101.863 31.3378 101.72 31.5C101.577 31.6622 101.406 31.7861 101.205 31.8717C101.007 31.9572 100.784 32 100.537 32C100.298 32 100.078 31.9572 99.8779 31.8717C99.6794 31.7861 99.5068 31.6622 99.3603 31.5C99.2155 31.3378 99.1033 31.1408 99.0235 30.9091C98.9437 30.6774 98.9038 30.4153 98.9038 30.123V29.877C98.9038 29.5847 98.9428 29.3235 99.0207 29.0936C99.1005 28.8619 99.2127 28.6649 99.3575 28.5027C99.5022 28.3387 99.6738 28.2139 99.8723 28.1283C100.073 28.0428 100.293 28 100.532 28C100.779 28 101.001 28.0428 101.2 28.1283C101.4 28.2139 101.572 28.3387 101.715 28.5027C101.859 28.6649 101.97 28.8619 102.046 29.0936C102.124 29.3235 102.163 29.5847 102.163 29.877ZM101.631 30.123V29.8717C101.631 29.6399 101.606 29.4349 101.556 29.2567C101.508 29.0784 101.436 28.9287 101.342 28.8075C101.247 28.6863 101.131 28.5945 100.994 28.5321C100.858 28.4697 100.704 28.4385 100.532 28.4385C100.365 28.4385 100.214 28.4697 100.078 28.5321C99.9447 28.5945 99.8297 28.6863 99.7332 28.8075C99.6386 28.9287 99.5653 29.0784 99.5133 29.2567C99.4614 29.4349 99.4354 29.6399 99.4354 29.8717V30.123C99.4354 30.3565 99.4614 30.5633 99.5133 30.7433C99.5653 30.9216 99.6395 31.0722 99.736 31.1952C99.8343 31.3164 99.9503 31.4082 100.084 31.4706C100.219 31.533 100.371 31.5642 100.537 31.5642C100.712 31.5642 100.867 31.533 101.002 31.4706C101.138 31.4082 101.252 31.3164 101.345 31.1952C101.439 31.0722 101.511 30.9216 101.559 30.7433C101.607 30.5633 101.631 30.3565 101.631 30.123Z" fill="#F5F5F5"/>
<path d="M106.153 28.0535V31.9465H105.625V28.0535H106.153ZM107.456 28.0535V28.4759H104.325V28.0535H107.456Z" fill="#F5F5F5"/>
<path d="M112.866 29.877V30.123C112.866 30.4153 112.828 30.6774 112.752 30.9091C112.676 31.1408 112.566 31.3378 112.423 31.5C112.28 31.6622 112.109 31.7861 111.908 31.8717C111.71 31.9572 111.487 32 111.241 32C111.001 32 110.781 31.9572 110.581 31.8717C110.382 31.7861 110.21 31.6622 110.063 31.5C109.919 31.3378 109.806 31.1408 109.727 30.9091C109.647 30.6774 109.607 30.4153 109.607 30.123V29.877C109.607 29.5847 109.646 29.3235 109.724 29.0936C109.804 28.8619 109.916 28.6649 110.061 28.5027C110.205 28.3387 110.377 28.2139 110.575 28.1283C110.776 28.0428 110.996 28 111.235 28C111.482 28 111.704 28.0428 111.903 28.1283C112.103 28.2139 112.275 28.3387 112.418 28.5027C112.562 28.6649 112.673 28.8619 112.749 29.0936C112.827 29.3235 112.866 29.5847 112.866 29.877ZM112.334 30.123V29.8717C112.334 29.6399 112.309 29.4349 112.259 29.2567C112.211 29.0784 112.139 28.9287 112.045 28.8075C111.95 28.6863 111.834 28.5945 111.697 28.5321C111.562 28.4697 111.408 28.4385 111.235 28.4385C111.068 28.4385 110.917 28.4697 110.781 28.5321C110.648 28.5945 110.533 28.6863 110.436 28.8075C110.342 28.9287 110.268 29.0784 110.216 29.2567C110.164 29.4349 110.138 29.6399 110.138 29.8717V30.123C110.138 30.3565 110.164 30.5633 110.216 30.7433C110.268 30.9216 110.343 31.0722 110.439 31.1952C110.537 31.3164 110.653 31.4082 110.787 31.4706C110.922 31.533 111.074 31.5642 111.241 31.5642C111.415 31.5642 111.57 31.533 111.705 31.4706C111.841 31.4082 111.955 31.3164 112.048 31.1952C112.142 31.0722 112.214 30.9216 112.262 30.7433C112.31 30.5633 112.334 30.3565 112.334 30.123Z" fill="#F5F5F5"/>
<path d="M118.432 30.008V31.4332C118.382 31.5045 118.302 31.5847 118.192 31.6738C118.083 31.7611 117.932 31.8378 117.739 31.9037C117.548 31.9679 117.301 32 116.998 32C116.752 32 116.524 31.959 116.317 31.877C116.111 31.7932 115.932 31.672 115.779 31.5134C115.629 31.3529 115.512 31.1586 115.429 30.9305C115.347 30.7005 115.306 30.4403 115.306 30.1497V29.8476C115.306 29.557 115.342 29.2977 115.412 29.0695C115.484 28.8414 115.59 28.648 115.729 28.4893C115.868 28.3289 116.039 28.2077 116.241 28.1257C116.444 28.0419 116.676 28 116.937 28C117.247 28 117.506 28.0517 117.714 28.1551C117.923 28.2567 118.087 28.3975 118.203 28.5775C118.322 28.7576 118.398 28.9626 118.432 29.1925H117.895C117.87 29.0517 117.822 28.9234 117.75 28.8075C117.679 28.6916 117.578 28.5989 117.446 28.5294C117.315 28.4581 117.145 28.4225 116.937 28.4225C116.75 28.4225 116.587 28.4554 116.45 28.5214C116.313 28.5873 116.2 28.6818 116.111 28.8048C116.022 28.9278 115.955 29.0766 115.91 29.2513C115.868 29.426 115.846 29.623 115.846 29.8422V30.1497C115.846 30.3743 115.873 30.5749 115.927 30.7513C115.983 30.9278 116.061 31.0784 116.163 31.2032C116.266 31.3262 116.387 31.4198 116.528 31.484C116.671 31.5481 116.829 31.5802 117.001 31.5802C117.192 31.5802 117.347 31.5651 117.466 31.5348C117.585 31.5027 117.677 31.4652 117.744 31.4225C117.811 31.3779 117.862 31.336 117.897 31.2968V30.4251H116.959V30.008H118.432Z" fill="#F5F5F5"/>
<path d="M121.089 28.0535H122.431C122.735 28.0535 122.992 28.098 123.202 28.1872C123.413 28.2763 123.574 28.4082 123.683 28.5829C123.794 28.7558 123.85 28.9688 123.85 29.2219C123.85 29.4002 123.812 29.5633 123.736 29.7112C123.662 29.8574 123.554 29.9822 123.413 30.0856C123.274 30.1872 123.107 30.2629 122.912 30.3128L122.762 30.369H121.501L121.496 29.9492H122.447C122.64 29.9492 122.801 29.9171 122.929 29.8529C123.057 29.787 123.153 29.6988 123.218 29.5882C123.283 29.4777 123.316 29.3556 123.316 29.2219C123.316 29.0722 123.285 28.9412 123.224 28.8289C123.163 28.7166 123.066 28.6301 122.934 28.5695C122.804 28.5071 122.637 28.4759 122.431 28.4759H121.626V31.9465H121.089V28.0535ZM123.458 31.9465L122.472 30.1818L123.032 30.1791L124.031 31.9144V31.9465H123.458Z" fill="#F5F5F5"/>
<path d="M127.868 28.3984L126.527 31.9465H125.979L127.523 28.0535H127.877L127.868 28.3984ZM128.993 31.9465L127.649 28.3984L127.64 28.0535H127.994L129.544 31.9465H128.993ZM128.923 30.5053V30.9278H126.647V30.5053H128.923Z" fill="#F5F5F5"/>
<path d="M133.348 30.4198H132.265V30H133.348C133.558 30 133.727 29.9679 133.857 29.9037C133.987 29.8396 134.082 29.7504 134.141 29.6364C134.202 29.5223 134.233 29.3922 134.233 29.246C134.233 29.1123 134.202 28.9866 134.141 28.869C134.082 28.7513 133.987 28.6569 133.857 28.5856C133.727 28.5125 133.558 28.4759 133.348 28.4759H132.391V31.9465H131.853V28.0535H133.348C133.654 28.0535 133.913 28.1043 134.124 28.2059C134.336 28.3075 134.496 28.4483 134.606 28.6283C134.715 28.8066 134.77 29.0107 134.77 29.2406C134.77 29.4902 134.715 29.7032 134.606 29.8797C134.496 30.0561 134.336 30.1907 134.124 30.2834C133.913 30.3743 133.654 30.4198 133.348 30.4198Z" fill="#F5F5F5"/>
<path d="M139.863 29.7273V30.1471H137.67V29.7273H139.863ZM137.753 28.0535V31.9465H137.216V28.0535H137.753ZM140.33 28.0535V31.9465H139.796V28.0535H140.33Z" fill="#F5F5F5"/>
<path d="M145.626 31.5267V31.9465H143.48V31.5267H145.626ZM143.589 28.0535V31.9465H143.052V28.0535H143.589ZM145.342 29.7273V30.1471H143.48V29.7273H145.342ZM145.598 28.0535V28.4759H143.48V28.0535H145.598Z" fill="#F5F5F5"/>
<path d="M148.058 28.0535H149.4C149.704 28.0535 149.961 28.098 150.171 28.1872C150.382 28.2763 150.543 28.4082 150.652 28.5829C150.763 28.7558 150.819 28.9688 150.819 29.2219C150.819 29.4002 150.781 29.5633 150.705 29.7112C150.631 29.8574 150.523 29.9822 150.382 30.0856C150.243 30.1872 150.076 30.2629 149.881 30.3128L149.731 30.369H148.47L148.465 29.9492H149.416C149.609 29.9492 149.77 29.9171 149.898 29.8529C150.026 29.787 150.122 29.6988 150.187 29.5882C150.252 29.4777 150.285 29.3556 150.285 29.2219C150.285 29.0722 150.254 28.9412 150.193 28.8289C150.132 28.7166 150.035 28.6301 149.903 28.5695C149.774 28.5071 149.606 28.4759 149.4 28.4759H148.595V31.9465H148.058V28.0535ZM150.427 31.9465L149.441 30.1818L150.001 30.1791L151 31.9144V31.9465H150.427Z" fill="#F5F5F5"/>
</svg>
