<svg width="95" height="56" viewBox="0 0 95 56" fill="none" xmlns="http://www.w3.org/2000/svg">
<circle cx="28" cy="28" r="27.5" transform="rotate(-180 28 28)" stroke="#F5F5F5" stroke-opacity="0.6"/>
<path d="M68.7539 1.9375L61.6289 20.4648H60.3633L67.4883 1.9375H68.7539ZM80.7136 9.00391V11.875C80.7136 13.125 80.5964 14.2148 80.362 15.1445C80.1277 16.0664 79.7839 16.832 79.3308 17.4414C78.8855 18.043 78.3386 18.4922 77.6902 18.7891C77.0495 19.0859 76.3152 19.2344 75.487 19.2344C74.8308 19.2344 74.2292 19.1406 73.6823 18.9531C73.1355 18.7656 72.6472 18.4805 72.2175 18.0977C71.7956 17.707 71.4362 17.2188 71.1394 16.6328C70.8425 16.0469 70.6159 15.3594 70.4597 14.5703C70.3034 13.7734 70.2253 12.875 70.2253 11.875V9.00391C70.2253 7.74609 70.3425 6.66016 70.5769 5.74609C70.8191 4.83203 71.1628 4.07422 71.6081 3.47266C72.0612 2.87109 72.612 2.42578 73.2605 2.13672C73.9089 1.83984 74.6433 1.69141 75.4636 1.69141C76.1198 1.69141 76.7214 1.78906 77.2683 1.98438C77.823 2.17188 78.3112 2.45312 78.7331 2.82812C79.1628 3.20312 79.5222 3.68359 79.8112 4.26953C80.1081 4.84766 80.3308 5.53125 80.4792 6.32031C80.6355 7.10938 80.7136 8.00391 80.7136 9.00391ZM79.3191 12.0391V8.82812C79.3191 8.05469 79.2644 7.35156 79.155 6.71875C79.0534 6.08594 78.9011 5.53125 78.698 5.05469C78.4948 4.57812 78.237 4.17969 77.9245 3.85938C77.6198 3.53906 77.2605 3.30078 76.8464 3.14453C76.4402 2.98047 75.9792 2.89844 75.4636 2.89844C74.8308 2.89844 74.2722 3.02734 73.7878 3.28516C73.3112 3.53516 72.9128 3.91016 72.5925 4.41016C72.2722 4.90234 72.03 5.51953 71.8659 6.26172C71.7097 7.00391 71.6316 7.85938 71.6316 8.82812V12.0391C71.6316 12.8047 71.6823 13.5039 71.7839 14.1367C71.8855 14.7617 72.0417 15.3164 72.2527 15.8008C72.4636 16.2852 72.7214 16.6953 73.0261 17.0312C73.3386 17.3594 73.698 17.6094 74.1042 17.7812C74.5183 17.9453 74.9792 18.0273 75.487 18.0273C76.1355 18.0273 76.698 17.8984 77.1745 17.6406C77.6511 17.375 78.0495 16.9883 78.3698 16.4805C78.6902 15.9648 78.9284 15.3359 79.0847 14.5938C79.2409 13.8438 79.3191 12.9922 79.3191 12.0391ZM85.0795 10.5625L83.978 10.2461L84.81 1.9375H93.3412V3.25H86.0053L85.4077 8.99219C85.7045 8.78125 86.1342 8.57422 86.6967 8.37109C87.267 8.16016 87.9077 8.05469 88.6186 8.05469C89.3764 8.05469 90.0639 8.18359 90.6811 8.44141C91.3061 8.69141 91.8412 9.05859 92.2866 9.54297C92.7319 10.0195 93.0756 10.5977 93.3178 11.2773C93.56 11.9492 93.6811 12.7109 93.6811 13.5625C93.6811 14.3828 93.5795 15.1367 93.3764 15.8242C93.1733 16.5117 92.8647 17.1133 92.4506 17.6289C92.0366 18.1367 91.5092 18.5312 90.8686 18.8125C90.228 19.0938 89.4662 19.2344 88.5834 19.2344C87.9037 19.2344 87.2631 19.1406 86.6616 18.9531C86.0678 18.7578 85.5366 18.4648 85.0678 18.0742C84.5991 17.6836 84.2162 17.1914 83.9194 16.5977C83.6303 16.0039 83.4506 15.3086 83.3803 14.5117H84.728C84.8217 15.2773 85.0287 15.9219 85.3491 16.4453C85.6694 16.9688 86.0991 17.3633 86.6381 17.6289C87.185 17.8945 87.8334 18.0273 88.5834 18.0273C89.1928 18.0273 89.7241 17.9297 90.1772 17.7344C90.6381 17.5391 91.0209 17.2539 91.3256 16.8789C91.6381 16.4961 91.8725 16.0312 92.0287 15.4844C92.1928 14.9297 92.2748 14.2969 92.2748 13.5859C92.2748 12.9766 92.1889 12.418 92.017 11.9102C91.8452 11.3945 91.5912 10.9453 91.2553 10.5625C90.9272 10.1719 90.5209 9.87109 90.0366 9.66016C89.5522 9.44922 88.9975 9.34375 88.3725 9.34375C87.56 9.34375 86.9116 9.45312 86.4272 9.67188C85.9506 9.89062 85.5014 10.1875 85.0795 10.5625Z" fill="#F5F5F5" fill-opacity="0.45"/>
<path d="M29.0329 26.6043V29.2754C29.0329 30.7112 28.8702 31.9225 28.5448 32.9091C28.2194 33.8957 27.7517 34.6898 27.1416 35.2914C26.5314 35.893 25.7942 36.3302 24.9298 36.6029C24.0757 36.8676 23.1096 37 22.0317 37C21.1775 37 20.3895 36.9158 19.6675 36.7473C18.9455 36.5789 18.2947 36.3102 17.7151 35.9412C17.1456 35.5642 16.6575 35.0749 16.2508 34.4733C15.844 33.8717 15.5339 33.1417 15.3203 32.2834C15.1068 31.4251 15 30.4225 15 29.2754V26.6043C15 25.1684 15.1627 23.9652 15.4881 22.9947C15.8237 22.0241 16.2965 21.246 16.9067 20.6604C17.5168 20.0668 18.2489 19.6417 19.1031 19.385C19.9675 19.1283 20.9335 19 22.0012 19C22.8656 19 23.6587 19.0842 24.3807 19.2527C25.1129 19.4131 25.7637 19.6738 26.3331 20.0348C26.9026 20.3877 27.3856 20.861 27.7822 21.4545C28.1889 22.0401 28.4991 22.758 28.7126 23.6083C28.9262 24.4586 29.0329 25.4572 29.0329 26.6043ZM26.1959 29.6364V26.2313C26.1959 25.4452 26.1348 24.7553 26.0128 24.1618C25.901 23.5602 25.7332 23.0468 25.5095 22.6217C25.2857 22.1965 25.001 21.8516 24.6553 21.5869C24.3197 21.3222 23.9282 21.1297 23.4808 21.0094C23.0435 20.881 22.5503 20.8168 22.0012 20.8168C21.3301 20.8168 20.7352 20.9171 20.2166 21.1176C19.698 21.3102 19.2607 21.619 18.9048 22.0441C18.5591 22.4693 18.2947 23.0267 18.1117 23.7166C17.9286 24.4064 17.8371 25.2447 17.8371 26.2313V29.6364C17.8371 30.4225 17.893 31.1163 18.0049 31.7179C18.1269 32.3195 18.3049 32.8409 18.5387 33.2821C18.7726 33.7152 19.0574 34.0722 19.3929 34.3529C19.7285 34.6337 20.1149 34.8422 20.5522 34.9786C20.9996 35.107 21.4928 35.1711 22.0317 35.1711C22.7232 35.1711 23.3283 35.0668 23.8469 34.8583C24.3655 34.6497 24.7976 34.3249 25.1434 33.8837C25.4993 33.4345 25.7637 32.861 25.9365 32.1631C26.1094 31.4572 26.1959 30.615 26.1959 29.6364Z" fill="#F5F5F5" fill-opacity="0.8"/>
<path d="M41 19.1444V36.7594H38.1782V21.9238L32.4887 23.5602V21.5508L40.5577 19.1444H41Z" fill="#F5F5F5" fill-opacity="0.8"/>
</svg>
