<svg width="174" height="26" viewBox="0 0 174 26" fill="none" xmlns="http://www.w3.org/2000/svg">
<path d="M13.1374 20.982C12.4679 20.982 11.7241 20.852 10.906 20.592C10.1064 20.332 9.2789 20.0113 8.42353 19.63C7.56816 19.266 6.72209 18.9107 5.88531 18.564C5.42044 19.0493 4.93697 19.422 4.4349 19.682C3.93284 19.9593 3.38429 20.098 2.78925 20.098C2.19421 20.098 1.69214 19.968 1.28305 19.708C0.855369 19.448 0.539254 19.136 0.33471 18.772C0.11157 18.4253 0 18.1133 0 17.836C0 17.524 0.158057 17.2553 0.474172 17.03C0.771692 16.8047 1.29235 16.692 2.03615 16.692C2.51962 16.692 3.04958 16.744 3.62602 16.848C4.22106 16.952 4.8347 17.082 5.46692 17.238C5.9132 16.51 6.32229 15.6607 6.69419 14.69C7.08469 13.7193 7.46589 12.688 7.83779 11.596C8.20969 10.504 8.58158 9.412 8.95348 8.32C8.09811 8.06 7.4194 7.67867 6.91733 7.176C6.43386 6.67333 6.19213 6.12733 6.19213 5.538C6.19213 5.226 6.25721 4.914 6.38738 4.602C6.53614 4.29 6.74068 4.03 7.00101 3.822C7.26134 3.59667 7.56816 3.484 7.92146 3.484C7.7913 3.65733 7.69832 3.90867 7.64254 4.238C7.58675 4.56733 7.55886 4.85333 7.55886 5.096C7.55886 5.75467 7.70762 6.30933 8.00514 6.76C8.30266 7.19333 8.68386 7.53133 9.14873 7.774C9.52063 6.734 9.90183 5.75467 10.2923 4.836C10.7014 3.9 11.1477 3.068 11.6312 2.34C12.1146 1.612 12.6446 1.04 13.221 0.624C13.7975 0.208 14.439 0 15.1456 0C15.5175 0 15.908 0.078 16.3171 0.234C16.7448 0.39 17.1074 0.658667 17.4049 1.04C17.7024 1.42133 17.8512 1.95867 17.8512 2.652C17.8512 3.24133 17.721 3.88267 17.4607 4.576C17.2004 5.252 16.8006 5.902 16.2613 6.526C15.7221 7.13267 15.034 7.63533 14.1973 8.034C13.3605 8.41533 12.375 8.61467 11.2407 8.632C11.2221 8.632 11.1756 8.632 11.1012 8.632C11.0454 8.632 10.9153 8.632 10.7107 8.632C10.3388 9.68933 9.93902 10.764 9.51133 11.856C9.10224 12.948 8.66526 13.988 8.20039 14.976C7.73551 15.9467 7.23345 16.8133 6.69419 17.576C7.54956 17.8187 8.41423 18.07 9.28819 18.33C10.1622 18.5727 11.0082 18.772 11.8264 18.928C12.6446 19.1013 13.3977 19.188 14.0857 19.188C14.4762 19.188 14.8295 19.1533 15.1456 19.084C15.4617 19.0147 15.7685 18.9107 16.0661 18.772C15.7685 19.5693 15.3688 20.1327 14.8667 20.462C14.3832 20.8087 13.8068 20.982 13.1374 20.982ZM2.67768 19.344C3.08677 19.344 3.46796 19.24 3.82127 19.032C4.19317 18.824 4.52788 18.5293 4.8254 18.148C4.24895 17.9227 3.68181 17.7407 3.12396 17.602C2.5847 17.446 2.09194 17.368 1.64566 17.368C1.29235 17.368 1.05062 17.4113 0.920452 17.498C0.790287 17.5847 0.725204 17.706 0.725204 17.862C0.725204 18.1567 0.911154 18.4773 1.28305 18.824C1.63636 19.1707 2.10123 19.344 2.67768 19.344ZM10.8781 8.138C11.7148 8.138 12.4679 7.92133 13.1374 7.488C13.8254 7.03733 14.4018 6.48267 14.8667 5.824C15.3502 5.148 15.7128 4.46333 15.9545 3.77C16.2148 3.07667 16.345 2.47 16.345 1.95C16.345 1.44733 16.2427 1.10933 16.0382 0.936C15.8336 0.745333 15.6012 0.649999 15.3409 0.649999C14.7644 0.649999 14.2252 0.996666 13.7231 1.69C13.221 2.38333 12.7376 3.302 12.2727 4.446C11.8264 5.57267 11.3615 6.80333 10.8781 8.138Z" fill="#101E1F"/>
<path d="M19.5459 19.5C18.9136 19.5 18.4023 19.24 18.0118 18.72C17.6399 18.1827 17.4539 17.5673 17.4539 16.874C17.4539 16.3713 17.5376 15.7907 17.705 15.132C17.8909 14.4733 18.1141 13.8233 18.3744 13.182C18.6347 12.5407 18.9043 12.012 19.1833 11.596C19.4622 11.18 19.7039 10.972 19.9085 10.972C20.0014 10.972 20.1595 11.024 20.3826 11.128C20.6058 11.2147 20.7917 11.336 20.9405 11.492C20.7359 11.7867 20.4849 12.2373 20.1874 12.844C19.8899 13.4507 19.6295 14.1007 19.4064 14.794C19.1833 15.4873 19.0717 16.1287 19.0717 16.718C19.0717 16.8567 19.0903 17.0733 19.1275 17.368C19.1647 17.6453 19.2576 17.8967 19.4064 18.122C19.5552 18.3473 19.7783 18.46 20.0758 18.46C20.4291 18.46 20.7917 18.2953 21.1636 17.966C21.5355 17.6193 21.9074 17.1773 22.2793 16.64C22.6698 16.1027 23.0417 15.522 23.395 14.898C23.7483 14.274 24.0737 13.676 24.3713 13.104C24.6874 12.532 24.9477 12.0553 25.1523 11.674C25.2638 11.6913 25.4219 11.726 25.6264 11.778C25.8496 11.83 26.0448 11.8993 26.2122 11.986C26.3981 12.0727 26.4911 12.194 26.4911 12.35C26.4911 12.4193 26.3981 12.6533 26.2122 13.052C26.0262 13.4333 25.8031 13.91 25.5428 14.482C25.301 15.0367 25.0872 15.6 24.9012 16.172C24.7153 16.744 24.6223 17.2467 24.6223 17.68C24.6223 17.992 24.6874 18.2433 24.8175 18.434C24.9663 18.6247 25.208 18.72 25.5428 18.72C25.9332 18.72 26.4074 18.5553 26.9653 18.226C27.5231 17.8967 28.0903 17.42 28.6667 16.796C29.2432 16.1547 29.7545 15.392 30.2008 14.508L30.5634 14.742C30.1729 15.678 29.6615 16.51 29.0293 17.238C28.3971 17.9487 27.7277 18.5033 27.0211 18.902C26.3144 19.3007 25.6264 19.5 24.957 19.5C24.4735 19.5 24.083 19.4133 23.7855 19.24C23.5066 19.0667 23.3021 18.8327 23.1719 18.538C23.0603 18.2433 23.0045 17.9227 23.0045 17.576C23.0045 17.368 23.0231 17.16 23.0603 16.952C23.0975 16.7267 23.144 16.5013 23.1998 16.276C22.8651 16.848 22.5025 17.3853 22.112 17.888C21.7215 18.3733 21.3124 18.7633 20.8847 19.058C20.457 19.3527 20.0107 19.5 19.5459 19.5Z" fill="#101E1F"/>
<path d="M31.3298 19.5C31.0137 19.5 30.6883 19.422 30.3535 19.266C30.0374 19.1273 29.7771 18.8933 29.5726 18.564C29.3494 18.2347 29.2378 17.8187 29.2378 17.316C29.2378 16.744 29.3866 16.1027 29.6841 15.392C29.9816 14.6813 30.3814 13.9793 30.8835 13.286C31.3856 12.5753 31.962 11.9253 32.6128 11.336C33.2637 10.7293 33.9424 10.2527 34.649 9.906C35.3556 9.542 36.0529 9.36 36.7409 9.36C37.1314 9.36 37.4289 9.42933 37.6335 9.568C37.8566 9.68933 37.9682 9.88867 37.9682 10.166C37.9682 10.2353 37.9589 10.296 37.9403 10.348C37.9403 10.4 37.931 10.4607 37.9124 10.53C37.8194 10.3913 37.68 10.296 37.494 10.244C37.3267 10.1747 37.1128 10.14 36.8525 10.14C36.2575 10.14 35.6717 10.3133 35.0953 10.66C34.5374 10.9893 34.0168 11.4313 33.5333 11.986C33.0684 12.5233 32.6593 13.104 32.306 13.728C31.9527 14.352 31.6738 14.9587 31.4692 15.548C31.2833 16.12 31.1903 16.6053 31.1903 17.004C31.1903 17.3853 31.2833 17.6887 31.4692 17.914C31.6552 18.1393 31.8969 18.252 32.1945 18.252C32.6965 18.252 33.3009 17.9573 34.0075 17.368C34.7327 16.7787 35.4672 15.9467 36.211 14.872C36.9548 13.7973 37.6242 12.5407 38.2192 11.102C38.6283 10.0967 39.0467 9.074 39.4744 8.034C39.9207 6.994 40.3669 5.99733 40.8132 5.044C41.2595 4.07333 41.6872 3.21533 42.0963 2.47C42.524 1.70733 42.9238 1.10933 43.2957 0.676001C43.6861 0.225334 44.0302 0 44.3277 0C44.4764 0 44.6066 0.0606664 44.7182 0.181999C44.8297 0.286 44.8855 0.424667 44.8855 0.598C44.8855 0.875333 44.7275 1.352 44.4114 2.028C44.1138 2.68667 43.714 3.484 43.212 4.42C42.7285 5.33867 42.2171 6.344 41.6779 7.436C41.1386 8.528 40.618 9.63733 40.1159 10.764C39.6324 11.8907 39.2327 12.9827 38.9165 14.04C38.619 15.08 38.4703 16.0333 38.4703 16.9C38.4703 17.3853 38.4981 17.7493 38.5539 17.992C38.6097 18.2347 38.7957 18.356 39.1118 18.356C39.5023 18.356 39.9579 18.2 40.4785 17.888C40.9992 17.576 41.5198 17.134 42.0405 16.562C42.5612 15.99 43.0167 15.3053 43.4072 14.508L43.7419 14.742C43.3886 15.626 42.9052 16.4233 42.2915 17.134C41.6779 17.8273 41.0178 18.3733 40.3112 18.772C39.6231 19.188 38.963 19.396 38.3308 19.396C37.6428 19.396 37.1593 19.1793 36.8804 18.746C36.6201 18.33 36.4899 17.8967 36.4899 17.446C36.4899 17.1513 36.5364 16.7613 36.6294 16.276C36.7223 15.7907 36.8525 15.2533 37.0198 14.664C36.4248 15.5827 35.7926 16.4147 35.1232 17.16C34.4537 17.888 33.7936 18.46 33.1428 18.876C32.5106 19.292 31.9062 19.5 31.3298 19.5Z" fill="#101E1F"/>
<path d="M56.9255 19.526C56.2747 19.526 55.8005 19.3353 55.503 18.954C55.2055 18.59 55.0567 18.148 55.0567 17.628C55.0567 17.1947 55.1218 16.7613 55.2519 16.328C55.4007 15.8947 55.5402 15.47 55.6703 15.054C55.8191 14.638 55.8935 14.2653 55.8935 13.936C55.8935 13.5893 55.8098 13.3467 55.6424 13.208C55.4751 13.0693 55.2891 13 55.0846 13C54.6197 13 54.1083 13.338 53.5505 14.014C53.0112 14.69 52.3046 15.6433 51.4307 16.874C51.1331 17.29 50.8821 17.7147 50.6776 18.148C50.473 18.564 50.2778 18.9453 50.0918 19.292C49.9431 19.292 49.7571 19.2747 49.534 19.24C49.3108 19.2053 49.1063 19.1447 48.9203 19.058C48.753 18.9887 48.6693 18.8933 48.6693 18.772C48.6693 18.6507 48.753 18.3647 48.9203 17.914C49.1063 17.446 49.3108 16.9087 49.534 16.302C49.7757 15.678 49.9803 15.054 50.1476 14.43C50.3336 13.7887 50.4265 13.2427 50.4265 12.792C50.4265 12.4973 50.3708 12.2633 50.2592 12.09C50.1662 11.8993 49.9896 11.804 49.7292 11.804C49.3201 11.804 48.8274 12.038 48.2509 12.506C47.6745 12.9567 47.0794 13.5547 46.4658 14.3C45.8522 15.0453 45.2664 15.8687 44.7086 16.77C44.1693 17.654 43.7323 18.538 43.3976 19.422C43.2303 19.422 43.0257 19.396 42.784 19.344C42.5423 19.292 42.3377 19.2227 42.1704 19.136C41.9844 19.0493 41.8914 18.9627 41.8914 18.876C41.8914 18.772 41.9937 18.4687 42.1983 17.966C42.3842 17.446 42.6073 16.8307 42.8677 16.12C43.1094 15.392 43.3233 14.6553 43.5092 13.91C43.7138 13.1647 43.816 12.506 43.816 11.934C43.9276 11.8127 44.1042 11.6913 44.346 11.57C44.5877 11.4487 44.8387 11.388 45.0991 11.388C45.3594 11.388 45.5454 11.4487 45.6569 11.57C45.7871 11.6913 45.8522 11.856 45.8522 12.064C45.8522 12.2893 45.7778 12.6793 45.629 13.234C45.4989 13.7713 45.3315 14.3693 45.127 15.028C45.4989 14.4733 45.9173 13.91 46.3821 13.338C46.8656 12.7487 47.3677 12.2113 47.8883 11.726C48.409 11.2407 48.9296 10.8507 49.4503 10.556C49.9896 10.244 50.5102 10.088 51.0123 10.088C51.5887 10.088 51.9792 10.2873 52.1838 10.686C52.4069 11.0673 52.5185 11.5267 52.5185 12.064C52.5185 12.4973 52.4627 12.9567 52.3511 13.442C52.2581 13.91 52.1466 14.352 52.0164 14.768C51.8862 15.1667 51.7654 15.4873 51.6538 15.73C52.0443 15.0713 52.472 14.4387 52.9369 13.832C53.4203 13.208 53.941 12.7053 54.4988 12.324C55.0567 11.9253 55.6517 11.726 56.284 11.726C56.879 11.726 57.2881 11.8907 57.5112 12.22C57.753 12.5493 57.8738 12.9393 57.8738 13.39C57.8738 13.8407 57.7902 14.3347 57.6228 14.872C57.4554 15.4093 57.2788 15.9293 57.0928 16.432C56.9255 16.9347 56.8418 17.368 56.8418 17.732C56.8418 17.9573 56.8976 18.1653 57.0092 18.356C57.1393 18.5293 57.3625 18.616 57.6786 18.616C58.1992 18.616 58.6827 18.3993 59.129 17.966C59.5939 17.5153 60.0216 16.978 60.412 16.354C60.8025 15.7127 61.1372 15.0973 61.4162 14.508L61.7509 14.872C61.4534 15.6 61.0722 16.328 60.6073 17.056C60.1424 17.7667 59.5939 18.356 58.9616 18.824C58.348 19.292 57.6693 19.526 56.9255 19.526Z" fill="#101E1F"/>
<path d="M62.908 19.396C62.1828 19.396 61.6435 19.1793 61.2902 18.746C60.9369 18.33 60.7603 17.8187 60.7603 17.212C60.7603 16.8133 60.8346 16.3107 60.9834 15.704C61.1508 15.0973 61.3646 14.4647 61.6249 13.806C61.8853 13.13 62.1828 12.4973 62.5175 11.908C62.8708 11.3187 63.2427 10.842 63.6332 10.478C64.0237 10.0967 64.4049 9.906 64.7768 9.906C64.9441 9.906 65.0836 9.958 65.1952 10.062C65.3253 10.1487 65.3904 10.2873 65.3904 10.478C65.3904 10.686 65.2417 11.024 64.9441 11.492C64.6652 11.96 64.3305 12.4973 63.94 13.104C63.5495 13.7107 63.2055 14.352 62.908 15.028C62.6291 15.6867 62.4896 16.3193 62.4896 16.926C62.4896 17.55 62.6012 17.966 62.8243 18.174C63.0474 18.382 63.3915 18.486 63.8563 18.486C64.4886 18.486 65.158 18.1913 65.8646 17.602C66.5898 17.0127 67.3522 15.9813 68.1518 14.508L68.4028 14.768C67.8635 16.2587 67.0826 17.4027 66.0598 18.2C65.0557 18.9973 64.0051 19.396 62.908 19.396ZM66.2551 7.488C65.9576 7.488 65.6879 7.41867 65.4462 7.28C65.2231 7.14133 65.1115 6.92467 65.1115 6.63C65.1115 6.266 65.3346 5.954 65.7809 5.694C66.2458 5.41667 66.7014 5.278 67.1476 5.278C67.4266 5.278 67.6497 5.33867 67.8171 5.46C67.9844 5.58133 68.0681 5.78933 68.0681 6.084C68.0681 6.41333 67.8728 6.734 67.4824 7.046C67.1105 7.34067 66.7014 7.488 66.2551 7.488Z" fill="#101E1F"/>
<path d="M69.9428 19.5C69.1432 19.5 68.5667 19.24 68.2134 18.72C67.8787 18.2173 67.7114 17.5847 67.7114 16.822C67.7114 15.99 67.8787 15.002 68.2134 13.858C68.5481 12.714 68.9851 11.5093 69.5244 10.244C70.0822 8.97867 70.6866 7.748 71.3374 6.552C71.9882 5.33867 72.639 4.238 73.2899 3.25C73.9407 2.262 74.5357 1.47333 75.075 0.883999C75.6328 0.294666 76.0698 0 76.3859 0C76.5905 0 76.7578 0.112667 76.888 0.338C77.0182 0.546 77.1204 0.805999 77.1948 1.118C77.2692 1.41267 77.3064 1.68133 77.3064 1.924C77.3064 2.392 77.1762 3.00733 76.9159 3.77C76.6742 4.51533 76.3209 5.356 75.856 6.292C75.4097 7.21067 74.8704 8.14667 74.2382 9.1C73.6246 10.036 72.9459 10.9373 72.2021 11.804C71.4769 12.6707 70.7052 13.416 69.887 14.04C69.7754 14.508 69.6824 14.9673 69.6081 15.418C69.5523 15.8513 69.5244 16.2673 69.5244 16.666C69.5244 17.342 69.6267 17.8447 69.8312 18.174C70.0358 18.5033 70.3426 18.668 70.7517 18.668C71.2537 18.668 71.7465 18.46 72.2299 18.044C72.732 17.628 73.1969 17.108 73.6246 16.484C74.0709 15.8427 74.4521 15.184 74.7682 14.508L75.1866 14.716C74.4428 16.1893 73.6339 17.3593 72.7599 18.226C71.8859 19.0753 70.9469 19.5 69.9428 19.5ZM70.138 13.156C70.7888 12.5493 71.4211 11.856 72.0347 11.076C72.6483 10.2787 73.2155 9.45533 73.7362 8.606C74.2754 7.75667 74.7496 6.93333 75.1587 6.136C75.5678 5.33867 75.8839 4.628 76.107 4.004C76.3301 3.36267 76.4417 2.86867 76.4417 2.522C76.4417 2.34867 76.4138 2.236 76.358 2.184C76.3209 2.132 76.2837 2.106 76.2465 2.106C76.0977 2.106 75.8374 2.33133 75.4655 2.782C75.1122 3.21533 74.6938 3.80467 74.2103 4.55C73.7269 5.29533 73.2341 6.14467 72.732 7.098C72.23 8.05133 71.7465 9.048 71.2816 10.088C70.8353 11.128 70.4541 12.1507 70.138 13.156Z" fill="#101E1F"/>
<path d="M75.5583 19.942C74.9819 19.942 74.4984 19.76 74.1079 19.396C73.6988 19.0493 73.4943 18.512 73.4943 17.784C73.4943 17.16 73.643 16.4927 73.9405 15.782C74.2381 15.054 74.6472 14.3433 75.1678 13.65C75.6885 12.9393 76.2742 12.298 76.925 11.726C77.5945 11.1367 78.2918 10.6687 79.017 10.322C79.7608 9.97533 80.4953 9.802 81.2205 9.802C81.9457 9.802 82.55 9.984 83.0335 10.348C83.517 10.6947 83.7587 11.1627 83.7587 11.752C83.7587 12.1853 83.6285 12.48 83.3682 12.636C83.1265 12.792 82.8011 12.87 82.392 12.87C82.4292 12.7313 82.4571 12.584 82.4756 12.428C82.5128 12.2547 82.5314 12.0987 82.5314 11.96C82.5314 11.5613 82.4292 11.2233 82.2246 10.946C82.0201 10.6513 81.6668 10.504 81.1647 10.504C80.644 10.504 80.1141 10.6773 79.5748 11.024C79.0356 11.3533 78.5149 11.804 78.0128 12.376C77.5108 12.9307 77.0645 13.5373 76.674 14.196C76.2835 14.8547 75.9767 15.5047 75.7536 16.146C75.5304 16.7873 75.4188 17.3593 75.4188 17.862C75.4188 18.538 75.6699 18.876 76.172 18.876C76.5996 18.876 77.0645 18.694 77.5666 18.33C78.0686 17.9487 78.58 17.472 79.1007 16.9C79.6399 16.3107 80.1513 15.704 80.6347 15.08C81.1182 14.456 81.5459 13.884 81.9178 13.364C81.9922 13.26 82.0387 13.208 82.0573 13.208C82.1688 13.2253 82.3083 13.26 82.4756 13.312C82.6616 13.364 82.8197 13.4333 82.9498 13.52C83.08 13.6067 83.1451 13.7193 83.1451 13.858C83.1451 14.014 83.0614 14.2307 82.894 14.508C82.7267 14.768 82.5407 15.0713 82.3362 15.418C82.1316 15.7647 81.9457 16.12 81.7783 16.484C81.611 16.8307 81.5273 17.16 81.5273 17.472C81.5273 17.732 81.6017 17.992 81.7504 18.252C81.8992 18.4947 82.1409 18.616 82.4756 18.616C82.9777 18.616 83.6378 18.278 84.456 17.602C85.2742 16.9087 86.1017 15.8773 86.9384 14.508L87.2174 14.768C86.8269 15.704 86.3248 16.5273 85.7112 17.238C85.0975 17.9487 84.4374 18.5033 83.7308 18.902C83.0428 19.3007 82.3641 19.5 81.6947 19.5C81.0066 19.5 80.4953 19.3093 80.1606 18.928C79.8445 18.5467 79.6864 18.1307 79.6864 17.68C79.6864 17.576 79.6957 17.4633 79.7143 17.342C79.7329 17.2033 79.7515 17.0647 79.7701 16.926C78.9705 17.9313 78.236 18.6853 77.5666 19.188C76.9157 19.6907 76.2463 19.942 75.5583 19.942Z" fill="#101E1F"/>
<path d="M94.0876 20.982C93.6785 20.7567 93.4182 20.514 93.3066 20.254C93.1951 20.0113 93.1393 19.8033 93.1393 19.63C93.1393 19.1447 93.3252 18.486 93.6971 17.654C94.0876 16.822 94.599 15.8773 95.2312 14.82C95.882 13.7453 96.598 12.636 97.3789 11.492C96.6909 11.44 96.1052 11.4053 95.6217 11.388C95.1382 11.3707 94.7199 11.362 94.3665 11.362H93.3903C93.5949 10.8593 93.9482 10.5127 94.4502 10.322C94.9709 10.114 95.5845 10.01 96.2911 10.01C96.6073 10.01 96.9327 10.0273 97.2674 10.062C97.6021 10.0967 97.9461 10.14 98.2994 10.192C99.2477 8.85733 100.215 7.566 101.2 6.318C102.204 5.05267 103.134 3.93467 103.989 2.964C104.863 1.976 105.589 1.23067 106.165 0.728C106.704 0.242667 107.151 0 107.504 0C107.708 0 107.932 0.078 108.173 0.234C108.434 0.372667 108.703 0.572 108.982 0.832C108.796 0.970667 108.555 1.34333 108.257 1.95C107.978 2.53933 107.671 3.28467 107.337 4.186C107.02 5.08733 106.704 6.07533 106.388 7.15C106.072 8.22467 105.775 9.32533 105.496 10.452C105.235 11.5613 105.021 12.6187 104.854 13.624C104.705 14.6293 104.631 15.5133 104.631 16.276C104.631 16.9347 104.705 17.446 104.854 17.81C105.021 18.174 105.291 18.356 105.663 18.356C106.146 18.356 106.695 18.044 107.309 17.42C107.922 16.796 108.592 15.8253 109.317 14.508L109.596 14.768C109.038 16.1547 108.322 17.29 107.448 18.174C106.593 19.058 105.7 19.5 104.77 19.5C104.008 19.5 103.45 19.188 103.097 18.564C102.762 17.9227 102.595 17.0733 102.595 16.016C102.595 15.4613 102.632 14.8547 102.706 14.196C102.799 13.5373 102.92 12.8527 103.069 12.142C102.251 12.0207 101.498 11.9253 100.81 11.856C100.14 11.7693 99.5174 11.6913 98.9409 11.622C98.067 13.13 97.2116 14.6813 96.3748 16.276C95.5566 17.8707 94.7942 19.4393 94.0876 20.982ZM103.264 11.232C103.543 10.088 103.869 8.93533 104.24 7.774C104.612 6.59533 105.003 5.47733 105.412 4.42C105.84 3.36267 106.239 2.43533 106.611 1.638C106.035 1.96733 105.365 2.55667 104.603 3.406C103.859 4.238 103.069 5.26067 102.232 6.474C101.395 7.67 100.54 8.98733 99.6661 10.426C100.298 10.5473 100.921 10.686 101.535 10.842C102.167 10.9807 102.744 11.1107 103.264 11.232Z" fill="#101E1F"/>
<path d="M108.619 26C108.042 26 107.596 25.896 107.28 25.688C106.945 25.4973 106.778 25.1593 106.778 24.674C106.778 24.1193 106.982 23.5993 107.391 23.114C107.782 22.646 108.312 22.1953 108.981 21.762C109.651 21.3287 110.385 20.8867 111.185 20.436C112.003 20.0027 112.812 19.5347 113.611 19.032C113.611 18.408 113.472 17.836 113.193 17.316C112.914 16.796 112.412 16.2673 111.687 15.73C112.338 15.5567 112.886 15.2533 113.333 14.82C113.797 14.3867 114.141 13.91 114.365 13.39C114.606 12.8527 114.727 12.3587 114.727 11.908C114.727 11.5093 114.634 11.18 114.448 10.92C114.281 10.66 114.011 10.53 113.639 10.53C113.026 10.53 112.477 10.7467 111.994 11.18C111.51 11.6133 111.064 12.1853 110.655 12.896C110.246 13.6067 109.827 14.3867 109.4 15.236L109.065 14.976C109.474 13.936 109.892 13.0087 110.32 12.194C110.766 11.3793 111.287 10.738 111.882 10.27C112.477 9.78467 113.193 9.542 114.03 9.542C114.662 9.542 115.201 9.73267 115.648 10.114C116.113 10.4953 116.345 11.0153 116.345 11.674C116.345 12.298 116.187 12.8787 115.871 13.416C115.555 13.9533 115.146 14.43 114.644 14.846C114.141 15.2447 113.611 15.574 113.054 15.834C113.537 16.1807 113.937 16.5533 114.253 16.952C114.588 17.3333 114.839 17.7407 115.006 18.174C115.713 17.6713 116.336 17.1253 116.875 16.536C117.433 15.9293 117.842 15.2533 118.102 14.508L118.409 14.82C118.149 15.6 117.73 16.3107 117.154 16.952C116.577 17.576 115.917 18.148 115.173 18.668C115.211 18.7893 115.239 18.928 115.257 19.084C115.276 19.24 115.285 19.3873 115.285 19.526C115.285 20.306 115.099 21.0773 114.727 21.84C114.355 22.62 113.853 23.322 113.221 23.946C112.589 24.57 111.873 25.064 111.073 25.428C110.292 25.8093 109.474 26 108.619 26ZM108.423 25.246C108.758 25.246 109.195 25.116 109.734 24.856C110.274 24.6133 110.822 24.2493 111.38 23.764C111.938 23.296 112.421 22.7153 112.831 22.022C113.24 21.3287 113.491 20.5313 113.584 19.63C112.84 20.0633 112.105 20.4707 111.38 20.852C110.673 21.2507 110.032 21.632 109.456 21.996C108.879 22.3773 108.423 22.7587 108.089 23.14C107.735 23.5387 107.559 23.9547 107.559 24.388C107.559 24.6827 107.643 24.8993 107.81 25.038C107.977 25.1767 108.182 25.246 108.423 25.246Z" fill="#101E1F"/>
<path d="M118.95 19.942C118.373 19.942 117.89 19.76 117.499 19.396C117.09 19.0493 116.886 18.512 116.886 17.784C116.886 17.16 117.034 16.4927 117.332 15.782C117.629 15.054 118.038 14.3433 118.559 13.65C119.08 12.9393 119.666 12.298 120.316 11.726C120.986 11.1367 121.683 10.6687 122.408 10.322C123.152 9.97533 123.887 9.802 124.612 9.802C125.337 9.802 125.941 9.984 126.425 10.348C126.908 10.6947 127.15 11.1627 127.15 11.752C127.15 12.1853 127.02 12.48 126.76 12.636C126.518 12.792 126.192 12.87 125.783 12.87C125.82 12.7313 125.848 12.584 125.867 12.428C125.904 12.2547 125.923 12.0987 125.923 11.96C125.923 11.5613 125.82 11.2233 125.616 10.946C125.411 10.6513 125.058 10.504 124.556 10.504C124.035 10.504 123.505 10.6773 122.966 11.024C122.427 11.3533 121.906 11.804 121.404 12.376C120.902 12.9307 120.456 13.5373 120.065 14.196C119.675 14.8547 119.368 15.5047 119.145 16.146C118.922 16.7873 118.81 17.3593 118.81 17.862C118.81 18.538 119.061 18.876 119.563 18.876C119.991 18.876 120.456 18.694 120.958 18.33C121.46 17.9487 121.971 17.472 122.492 16.9C123.031 16.3107 123.543 15.704 124.026 15.08C124.51 14.456 124.937 13.884 125.309 13.364C125.383 13.26 125.43 13.208 125.449 13.208C125.56 13.2253 125.7 13.26 125.867 13.312C126.053 13.364 126.211 13.4333 126.341 13.52C126.471 13.6067 126.536 13.7193 126.536 13.858C126.536 14.014 126.453 14.2307 126.285 14.508C126.118 14.768 125.932 15.0713 125.728 15.418C125.523 15.7647 125.337 16.12 125.17 16.484C125.002 16.8307 124.919 17.16 124.919 17.472C124.919 17.732 124.993 17.992 125.142 18.252C125.291 18.4947 125.532 18.616 125.867 18.616C126.369 18.616 127.029 18.278 127.847 17.602C128.666 16.9087 129.493 15.8773 130.33 14.508L130.609 14.768C130.218 15.704 129.716 16.5273 129.102 17.238C128.489 17.9487 127.829 18.5033 127.122 18.902C126.434 19.3007 125.755 19.5 125.086 19.5C124.398 19.5 123.887 19.3093 123.552 18.928C123.236 18.5467 123.078 18.1307 123.078 17.68C123.078 17.576 123.087 17.4633 123.106 17.342C123.124 17.2033 123.143 17.0647 123.161 16.926C122.362 17.9313 121.627 18.6853 120.958 19.188C120.307 19.6907 119.638 19.942 118.95 19.942Z" fill="#101E1F"/>
<path d="M134.585 19.396C133.952 19.396 133.45 19.24 133.078 18.928C132.725 18.616 132.549 18.2087 132.549 17.706C132.549 17.186 132.679 16.64 132.939 16.068C133.199 15.496 133.45 14.9327 133.692 14.378C133.952 13.806 134.083 13.2947 134.083 12.844C134.083 12.2893 133.906 11.882 133.553 11.622C133.218 11.3447 132.874 11.0933 132.521 10.868C132.093 11.8907 131.647 12.8613 131.182 13.78C130.717 14.6987 130.336 15.392 130.038 15.86L129.787 15.418C130.047 14.9673 130.382 14.3087 130.791 13.442C131.219 12.5753 131.637 11.5873 132.046 10.478C131.861 10.3047 131.768 10.0967 131.768 9.854C131.768 9.334 131.926 8.90933 132.242 8.58C132.558 8.25067 132.79 8.086 132.939 8.086C133.144 8.086 133.255 8.17267 133.274 8.346C133.311 8.502 133.33 8.62333 133.33 8.71C133.33 8.79667 133.274 8.97 133.162 9.23C133.069 9.47267 133.023 9.62 133.023 9.672C133.023 9.91467 133.162 10.14 133.441 10.348C133.739 10.5387 134.073 10.764 134.445 11.024C134.817 11.2667 135.143 11.57 135.421 11.934C135.719 12.2807 135.868 12.7313 135.868 13.286C135.868 13.806 135.747 14.3347 135.505 14.872C135.282 15.4093 135.05 15.9207 134.808 16.406C134.585 16.8913 134.473 17.316 134.473 17.68C134.473 17.992 134.557 18.2 134.724 18.304C134.891 18.408 135.087 18.46 135.31 18.46C135.756 18.46 136.212 18.33 136.677 18.07C137.16 17.81 137.625 17.4807 138.071 17.082C138.518 16.6833 138.917 16.2673 139.271 15.834C139.624 15.3833 139.884 14.9673 140.052 14.586L140.414 14.846C140.061 15.574 139.577 16.2933 138.964 17.004C138.35 17.6973 137.662 18.2693 136.9 18.72C136.156 19.1707 135.384 19.396 134.585 19.396Z" fill="#101E1F"/>
<path d="M141.381 19.552C140.581 19.552 140.014 19.318 139.679 18.85C139.345 18.3993 139.177 17.8447 139.177 17.186C139.177 16.6487 139.27 16.094 139.456 15.522C139.642 14.95 139.884 14.4127 140.181 13.91C140.498 13.4073 140.842 13 141.213 12.688C141.604 12.376 141.994 12.22 142.385 12.22C142.478 12.22 142.571 12.2373 142.664 12.272C142.775 12.2893 142.878 12.3153 142.971 12.35C142.803 12.4887 142.599 12.7487 142.357 13.13C142.134 13.494 141.92 13.9187 141.716 14.404C141.511 14.872 141.334 15.34 141.186 15.808C141.055 16.276 140.99 16.6747 140.99 17.004C140.99 17.524 141.083 17.9053 141.269 18.148C141.455 18.3733 141.697 18.486 141.994 18.486C142.385 18.486 142.85 18.2953 143.389 17.914C143.928 17.5153 144.458 17.0127 144.979 16.406C144.458 16.0073 144.049 15.4873 143.752 14.846C143.473 14.1873 143.333 13.52 143.333 12.844C143.333 12.272 143.436 11.7347 143.64 11.232C143.863 10.7293 144.179 10.3307 144.588 10.036C144.998 9.724 145.49 9.568 146.067 9.568C146.829 9.568 147.341 9.75867 147.601 10.14C147.861 10.5213 147.991 10.998 147.991 11.57C147.991 12.246 147.815 13 147.461 13.832C147.108 14.6467 146.662 15.4353 146.123 16.198C146.457 16.3713 146.811 16.458 147.182 16.458C147.48 16.458 147.815 16.406 148.187 16.302C148.559 16.1807 148.921 15.9813 149.274 15.704C149.646 15.4267 149.944 15.054 150.167 14.586L150.502 14.846C150.13 15.6607 149.6 16.2413 148.912 16.588C148.242 16.9173 147.601 17.082 146.987 17.082C146.745 17.082 146.513 17.0647 146.29 17.03C146.067 16.978 145.853 16.9087 145.648 16.822C145.016 17.602 144.319 18.252 143.556 18.772C142.813 19.292 142.087 19.552 141.381 19.552ZM145.481 15.73C145.946 15.0887 146.327 14.4213 146.625 13.728C146.941 13.0173 147.099 12.35 147.099 11.726C147.099 11.2233 147.015 10.8593 146.848 10.634C146.699 10.3913 146.504 10.27 146.262 10.27C145.89 10.27 145.509 10.5213 145.118 11.024C144.728 11.5267 144.533 12.1593 144.533 12.922C144.533 13.4247 144.607 13.936 144.756 14.456C144.923 14.9587 145.165 15.3833 145.481 15.73Z" fill="#101E1F"/>
<path d="M151.457 19.734C150.88 19.734 150.48 19.4653 150.257 18.928C150.034 18.408 149.922 17.7233 149.922 16.874C149.922 16.8393 149.932 16.5707 149.95 16.068C149.969 15.548 150.015 14.6813 150.09 13.468C150.127 13 150.183 12.6793 150.257 12.506C150.332 12.3327 150.573 12.246 150.982 12.246C151.299 12.246 151.494 12.3067 151.568 12.428C151.661 12.532 151.708 12.7487 151.708 13.078C151.708 13.65 151.661 14.326 151.568 15.106C151.494 15.8687 151.457 16.588 151.457 17.264C151.457 17.7667 151.503 18.1393 151.596 18.382C151.689 18.6073 151.856 18.72 152.098 18.72C152.433 18.72 152.805 18.5467 153.214 18.2C153.623 17.836 154.041 17.368 154.469 16.796C154.897 16.2067 155.296 15.5827 155.668 14.924C156.059 14.2653 156.403 13.6327 156.7 13.026C156.738 11.8473 156.868 11.0673 157.091 10.686C157.333 10.2873 157.63 10.088 157.983 10.088C158.337 10.088 158.588 10.2093 158.736 10.452C158.904 10.6773 158.988 10.8853 158.988 11.076C158.988 11.3013 158.904 11.5353 158.736 11.778C158.588 12.0207 158.43 12.35 158.262 12.766C158.095 13.182 158.011 13.78 158.011 14.56C158.011 14.8373 158.039 15.132 158.095 15.444C158.151 15.756 158.272 16.016 158.458 16.224C158.644 16.432 158.932 16.536 159.322 16.536C159.713 16.536 160.085 16.3973 160.438 16.12C160.81 15.8253 161.172 15.3227 161.526 14.612L161.888 14.872C161.479 15.7387 161.024 16.3193 160.522 16.614C160.038 16.9087 159.573 17.056 159.127 17.056C158.513 17.056 158.002 16.848 157.593 16.432C157.184 16.016 156.914 15.3833 156.784 14.534C156.338 15.3833 155.808 16.2067 155.194 17.004C154.599 17.784 153.976 18.434 153.325 18.954C152.675 19.474 152.052 19.734 151.457 19.734Z" fill="#101E1F"/>
<path d="M162.341 19.942C161.765 19.942 161.281 19.76 160.891 19.396C160.481 19.0493 160.277 18.512 160.277 17.784C160.277 17.16 160.426 16.4927 160.723 15.782C161.021 15.054 161.43 14.3433 161.95 13.65C162.471 12.9393 163.057 12.298 163.708 11.726C164.377 11.1367 165.074 10.6687 165.8 10.322C166.543 9.97533 167.278 9.802 168.003 9.802C168.728 9.802 169.333 9.984 169.816 10.348C170.3 10.6947 170.541 11.1627 170.541 11.752C170.541 12.1853 170.411 12.48 170.151 12.636C169.909 12.792 169.584 12.87 169.175 12.87C169.212 12.7313 169.24 12.584 169.258 12.428C169.295 12.2547 169.314 12.0987 169.314 11.96C169.314 11.5613 169.212 11.2233 169.007 10.946C168.803 10.6513 168.449 10.504 167.947 10.504C167.427 10.504 166.897 10.6773 166.357 11.024C165.818 11.3533 165.298 11.804 164.795 12.376C164.293 12.9307 163.847 13.5373 163.457 14.196C163.066 14.8547 162.759 15.5047 162.536 16.146C162.313 16.7873 162.201 17.3593 162.201 17.862C162.201 18.538 162.453 18.876 162.955 18.876C163.382 18.876 163.847 18.694 164.349 18.33C164.851 17.9487 165.363 17.472 165.883 16.9C166.423 16.3107 166.934 15.704 167.417 15.08C167.901 14.456 168.329 13.884 168.7 13.364C168.775 13.26 168.821 13.208 168.84 13.208C168.951 13.2253 169.091 13.26 169.258 13.312C169.444 13.364 169.602 13.4333 169.732 13.52C169.863 13.6067 169.928 13.7193 169.928 13.858C169.928 14.014 169.844 14.2307 169.677 14.508C169.509 14.768 169.323 15.0713 169.119 15.418C168.914 15.7647 168.728 16.12 168.561 16.484C168.394 16.8307 168.31 17.16 168.31 17.472C168.31 17.732 168.384 17.992 168.533 18.252C168.682 18.4947 168.924 18.616 169.258 18.616C169.76 18.616 170.42 18.278 171.239 17.602C172.057 16.9087 172.884 15.8773 173.721 14.508L174 14.768C173.61 15.704 173.107 16.5273 172.494 17.238C171.88 17.9487 171.22 18.5033 170.513 18.902C169.825 19.3007 169.147 19.5 168.477 19.5C167.789 19.5 167.278 19.3093 166.943 18.928C166.627 18.5467 166.469 18.1307 166.469 17.68C166.469 17.576 166.478 17.4633 166.497 17.342C166.516 17.2033 166.534 17.0647 166.553 16.926C165.753 17.9313 165.019 18.6853 164.349 19.188C163.698 19.6907 163.029 19.942 162.341 19.942Z" fill="#101E1F"/>
</svg>
